<?xml version="1.0" encoding="UTF-8" standalone="no"?>
<!-- Created with Inkscape (http://www.inkscape.org/) -->

<svg
   xmlns:dc="http://purl.org/dc/elements/1.1/"
   xmlns:cc="http://creativecommons.org/ns#"
   xmlns:rdf="http://www.w3.org/1999/02/22-rdf-syntax-ns#"
   xmlns:svg="http://www.w3.org/2000/svg"
   xmlns="http://www.w3.org/2000/svg"
   xmlns:sodipodi="http://sodipodi.sourceforge.net/DTD/sodipodi-0.dtd"
   xmlns:inkscape="http://www.inkscape.org/namespaces/inkscape"
   version="1.1"
   id="svg37418"
   xml:space="preserve"
   width="800"
   height="800"
   viewBox="0 0 800 800"
   sodipodi:docname="logo-elements-46-publicdomainvectors.org.svg"
   inkscape:version="0.92.4 (5da689c313, 2019-01-14)"><metadata
     id="metadata37424"><rdf:RDF><cc:Work
         rdf:about=""><dc:format>image/svg+xml</dc:format><dc:type
           rdf:resource="http://purl.org/dc/dcmitype/StillImage" /><dc:title></dc:title></cc:Work></rdf:RDF></metadata><defs
     id="defs37422"><clipPath
       clipPathUnits="userSpaceOnUse"
       id="clipPath37434"><path
         d="M 0,600 H 600 V 0 H 0 Z"
         id="path37432"
         inkscape:connector-curvature="0" /></clipPath><radialGradient
       fx="0"
       fy="0"
       cx="0"
       cy="0"
       r="1"
       gradientUnits="userSpaceOnUse"
       gradientTransform="matrix(225.94133,0,0,-225.94133,295.11914,343.32861)"
       spreadMethod="pad"
       id="radialGradient37456"><stop
         style="stop-opacity:1;stop-color:#fff200"
         offset="0"
         id="stop37448" /><stop
         style="stop-opacity:1;stop-color:#fff200"
         offset="0.19"
         id="stop37450" /><stop
         style="stop-opacity:1;stop-color:#fff200"
         offset="0.23583464"
         id="stop37452" /><stop
         style="stop-opacity:1;stop-color:#f57b25"
         offset="1"
         id="stop37454" /></radialGradient></defs><sodipodi:namedview
     pagecolor="#ffffff"
     bordercolor="#666666"
     borderopacity="1"
     objecttolerance="10"
     gridtolerance="10"
     guidetolerance="10"
     inkscape:pageopacity="0"
     inkscape:pageshadow="2"
     inkscape:window-width="797"
     inkscape:window-height="480"
     id="namedview37420"
     showgrid="false"
     inkscape:zoom="0.295"
     inkscape:cx="400"
     inkscape:cy="400"
     inkscape:window-x="0"
     inkscape:window-y="0"
     inkscape:window-maximized="0"
     inkscape:current-layer="g37426" /><g
     id="g37426"
     inkscape:groupmode="layer"
     inkscape:label="logo-elements-46-publicdomainvectors.org"
     transform="matrix(1.3333333,0,0,-1.3333333,0,800)"><g
       id="g37428"><g
         id="g37430"
         clip-path="url(#clipPath37434)"><g
           id="g37436"><g
             id="g37438"><g
               id="g37444"><g
                 id="g37446"><path
                   d="m 296.252,451.564 c 10.769,0.017 20.88,-0.587 30.211,-1.821 7.033,-0.997 14.018,-2.135 20.933,-3.453 6.523,-1.894 12.968,-3.999 19.356,-6.223 14.268,-6.098 26.556,-13.827 36.517,-23.281 2.982,-2.984 6.127,-5.978 9.351,-9.031 0.611,-0.466 1.201,-0.967 1.76,-1.474 1.959,0.371 3.926,0.731 5.875,1.08 12.129,2.329 24.488,4.744 37.128,7.202 7.96,1.53 16,3.04 24.087,4.502 -3.191,-7.572 -6.401,-15.083 -9.626,-22.523 -5.145,-11.798 -10.188,-23.341 -15.086,-34.676 -0.774,-1.833 -1.539,-3.679 -2.334,-5.52 0.361,-0.655 0.738,-1.33 1.051,-2.023 2.274,-3.835 4.522,-7.528 6.781,-11.087 7.079,-11.794 11.954,-25.475 14.8,-40.715 0.784,-6.708 1.433,-13.459 1.87,-20.245 -0.209,-7.026 -0.623,-14.094 -1.158,-21.182 -0.839,-9.37 -2.461,-19.366 -4.792,-29.892 -0.114,-0.367 -0.216,-0.731 -0.296,-1.084 l 1.06,0.547 c 7.406,20.463 13.236,40.217 17.26,58.847 0.883,3.698 1.662,7.32 2.32,10.839 0.662,4.544 1.425,9.241 2.275,14.087 2.015,14.522 2.589,27.927 1.624,39.936 -0.743,3.433 -1.094,7.419 -1.077,11.922 -1.288,9.4 -3.37,18.156 -6.154,26.227 7.027,16.358 13.866,32.964 20.512,49.813 -17.904,-2.821 -35.6,-5.888 -53.087,-9.194 -7.276,4.464 -15.373,8.421 -24.268,11.696 -4.402,0.983 -8.214,2.183 -11.398,3.651 -11.52,3.542 -24.739,5.902 -39.346,7.091 -4.913,0.218 -9.658,0.503 -14.24,0.835 -3.582,0.121 -7.276,0.159 -11.098,0.095 -19.044,0.123 -39.607,-1.291 -61.167,-4.07 l -0.775,-0.919 c 0.36,0.005 0.724,0.019 1.131,0.043 m -94.296,-53.136 c 5.366,9.332 10.944,17.789 16.68,25.252 4.378,5.594 8.857,11.073 13.455,16.403 4.902,4.701 9.947,9.231 15.067,13.651 12.415,9.305 25.254,16.086 38.422,19.983 4.075,1.094 8.238,2.318 12.494,3.587 0.711,0.293 1.439,0.552 2.156,0.784 0.661,1.884 1.331,3.765 2.004,5.63 4.048,11.666 8.137,23.58 12.328,35.751 2.654,7.662 5.368,15.377 8.144,23.114 4.963,-6.549 9.863,-13.084 14.692,-19.598 7.646,-10.356 15.119,-20.495 22.487,-30.406 1.202,-1.585 2.415,-3.17 3.611,-4.779 0.749,-0.016 1.524,-0.027 2.28,-0.102 4.458,0.052 8.781,0.151 12.993,0.329 13.752,0.234 28.041,-2.385 42.658,-7.538 6.204,-2.676 12.376,-5.489 18.469,-8.506 5.979,-3.694 11.895,-7.586 17.767,-11.593 7.693,-5.411 15.539,-11.814 23.492,-19.096 0.258,-0.28 0.522,-0.553 0.789,-0.798 l 0.057,1.193 c -14.019,16.644 -28.208,31.567 -42.335,44.37 -2.76,2.615 -5.509,5.096 -8.225,7.428 -3.606,2.846 -7.293,5.853 -11.063,9.014 -11.568,9.007 -22.893,16.205 -33.775,21.374 -3.344,1.072 -6.972,2.762 -10.864,5.026 -8.783,3.587 -17.406,6.163 -25.787,7.788 -10.657,14.262 -21.616,28.492 -32.885,42.669 -6.51,-16.916 -12.703,-33.775 -18.581,-50.573 -7.506,-4.066 -14.981,-9.101 -22.263,-15.167 -3.051,-3.32 -5.998,-6.023 -8.86,-8.044 -8.83,-8.209 -17.481,-18.477 -25.813,-30.532 -2.646,-4.142 -5.266,-8.114 -7.845,-11.914 -1.894,-3.04 -3.776,-6.22 -5.63,-9.564 -9.632,-16.432 -18.686,-34.946 -27.062,-55.007 l 0.409,-1.132 c 0.179,0.316 0.346,0.639 0.534,1.003 m -1.137,-108.232 c -5.399,9.314 -9.934,18.374 -13.529,27.071 -2.651,6.59 -5.158,13.206 -7.476,19.856 -1.622,6.595 -3.021,13.23 -4.291,19.873 -1.85,15.404 -1.303,29.914 1.907,43.265 1.091,4.074 2.112,8.295 3.144,12.614 0.098,0.763 0.238,1.523 0.397,2.261 -1.302,1.513 -2.596,3.036 -3.873,4.547 -8.082,9.34 -16.353,18.838 -24.801,28.553 -5.307,6.131 -10.632,12.337 -15.944,18.612 8.153,1.024 16.264,1.996 24.319,2.926 12.793,1.442 25.309,2.846 37.576,4.269 1.973,0.248 3.954,0.506 5.945,0.738 0.388,0.641 0.784,1.304 1.229,1.922 2.182,3.888 4.258,7.68 6.209,11.418 6.672,12.027 16.086,23.09 27.858,33.175 5.419,4.031 10.941,7.972 16.6,11.739 6.191,3.331 12.518,6.511 18.924,9.589 8.535,3.961 18,7.553 28.284,10.798 0.371,0.084 0.738,0.176 1.083,0.286 l -1.002,0.647 c -21.425,-3.819 -41.444,-8.648 -59.591,-14.478 -3.643,-1.085 -7.171,-2.223 -10.548,-3.411 -4.266,-1.698 -8.715,-3.388 -13.337,-5.075 -13.585,-5.514 -25.481,-11.721 -35.399,-18.56 -2.6,-2.364 -5.878,-4.659 -9.785,-6.896 -7.497,-5.813 -14.039,-11.993 -19.637,-18.439 -17.68,-2.097 -35.481,-4.476 -53.395,-7.144 11.395,-14.098 22.899,-27.888 34.507,-41.378 -0.23,-8.536 0.392,-17.523 2.004,-26.866 1.348,-4.301 2.216,-8.204 2.536,-11.697 2.695,-11.746 7.261,-24.372 13.534,-37.618 2.266,-4.363 4.395,-8.616 6.396,-12.75 1.686,-3.164 3.499,-6.382 5.466,-9.659 9.416,-16.554 20.924,-33.655 34.107,-50.94 l 1.186,-0.21 c -0.186,0.31 -0.38,0.62 -0.603,0.962 m 93.163,-55.1 c -10.763,-0.017 -20.877,0.585 -30.207,1.819 -7.034,0.999 -14.016,2.137 -20.934,3.451 -6.522,1.895 -12.966,4 -19.355,6.226 -14.264,6.099 -26.559,13.825 -36.517,23.281 -2.983,2.984 -6.125,5.979 -9.353,9.031 -0.61,0.464 -1.198,0.966 -1.758,1.475 -1.962,-0.372 -3.923,-0.731 -5.875,-1.083 -12.129,-2.329 -24.49,-4.74 -37.127,-7.202 -7.963,-1.527 -16.001,-3.036 -24.09,-4.5 3.192,7.57 6.402,15.081 9.627,22.524 5.146,11.799 10.188,23.339 15.088,34.676 0.772,1.832 1.538,3.678 2.333,5.519 -0.361,0.653 -0.737,1.332 -1.05,2.024 -2.275,3.835 -4.522,7.527 -6.783,11.084 -7.078,11.794 -11.953,25.475 -14.8,40.715 -0.784,6.709 -1.433,13.46 -1.868,20.248 0.21,7.025 0.621,14.094 1.157,21.179 0.839,9.371 2.461,19.369 4.792,29.895 0.113,0.367 0.217,0.729 0.295,1.081 l -1.062,-0.547 c -7.404,-20.461 -13.233,-40.214 -17.258,-58.844 -0.883,-3.697 -1.66,-7.319 -2.319,-10.842 -0.663,-4.541 -1.424,-9.241 -2.275,-14.083 -2.015,-14.526 -2.588,-27.929 -1.624,-39.936 0.745,-3.435 1.095,-7.42 1.079,-11.924 1.285,-9.399 3.367,-18.158 6.151,-26.229 -7.024,-16.359 -13.866,-32.962 -20.511,-49.811 17.905,2.822 35.602,5.888 53.087,9.193 7.276,-4.465 15.373,-8.422 24.269,-11.696 4.4,-0.981 8.212,-2.183 11.396,-3.649 11.522,-3.544 24.74,-5.902 39.347,-7.091 4.909,-0.218 9.658,-0.504 14.24,-0.836 3.582,-0.121 7.276,-0.158 11.098,-0.094 19.044,-0.124 39.607,1.291 61.169,4.07 l 0.777,0.919 c -0.365,-0.008 -0.728,-0.019 -1.139,-0.043 m 94.302,53.133 c -5.368,-9.332 -10.946,-17.789 -16.681,-25.251 -4.379,-5.592 -8.856,-11.072 -13.457,-16.405 -4.901,-4.699 -9.947,-9.227 -15.067,-13.65 -12.413,-9.305 -25.252,-16.086 -38.419,-19.982 -4.075,-1.092 -8.241,-2.318 -12.499,-3.585 -0.706,-0.296 -1.436,-0.555 -2.156,-0.787 -0.658,-1.883 -1.328,-3.762 -1.999,-5.627 -4.049,-11.67 -8.139,-23.581 -12.327,-35.754 -2.658,-7.662 -5.368,-15.376 -8.147,-23.114 -4.961,6.552 -9.861,13.087 -14.693,19.6 -7.646,10.354 -15.121,20.493 -22.486,30.405 -1.2,1.584 -2.418,3.171 -3.614,4.78 -0.747,0.014 -1.521,0.028 -2.278,0.103 -4.46,-0.054 -8.777,-0.153 -12.992,-0.332 -13.752,-0.234 -28.038,2.386 -42.658,7.538 -6.204,2.679 -12.373,5.49 -18.468,8.508 -5.98,3.694 -11.897,7.587 -17.765,11.594 -7.697,5.409 -15.542,11.811 -23.495,19.096 -0.259,0.28 -0.521,0.552 -0.788,0.795 l -0.058,-1.193 c 14.019,-16.645 28.21,-31.567 42.333,-44.37 2.762,-2.612 5.511,-5.097 8.228,-7.427 3.605,-2.846 7.291,-5.855 11.062,-9.013 11.572,-9.007 22.89,-16.207 33.772,-21.376 3.347,-1.072 6.974,-2.76 10.867,-5.025 8.782,-3.588 17.406,-6.164 25.79,-7.786 10.653,-14.265 21.613,-28.492 32.883,-42.672 6.509,16.919 12.7,33.778 18.579,50.573 7.506,4.069 14.978,9.104 22.264,15.17 3.052,3.317 5.996,6.021 8.86,8.045 8.826,8.205 17.48,18.474 25.815,30.527 2.644,4.146 5.264,8.115 7.842,11.915 1.898,3.042 3.777,6.223 5.632,9.565 9.63,16.429 18.685,34.947 27.059,55.009 l -0.408,1.131 c -0.174,-0.318 -0.347,-0.638 -0.531,-1.005 m 1.133,108.234 c 5.4,-9.316 9.933,-18.374 13.53,-27.07 2.656,-6.593 5.161,-13.208 7.479,-19.857 1.617,-6.597 3.018,-13.229 4.288,-19.872 1.851,-15.405 1.301,-29.914 -1.906,-43.268 -1.091,-4.074 -2.113,-8.292 -3.142,-12.615 -0.1,-0.76 -0.24,-1.519 -0.399,-2.258 1.301,-1.511 2.595,-3.035 3.874,-4.549 8.081,-9.338 16.352,-18.837 24.8,-28.55 5.306,-6.134 10.632,-12.337 15.943,-18.611 -8.155,-1.024 -16.264,-2 -24.319,-2.927 -12.791,-1.442 -25.308,-2.846 -37.575,-4.271 -1.973,-0.246 -3.954,-0.508 -5.945,-0.739 -0.386,-0.642 -0.784,-1.304 -1.23,-1.922 -2.181,-3.889 -4.254,-7.68 -6.209,-11.418 -6.674,-12.025 -16.085,-23.088 -27.857,-33.172 -5.422,-4.034 -10.94,-7.971 -16.601,-11.741 -6.19,-3.332 -12.518,-6.51 -18.924,-9.59 -8.532,-3.958 -18.001,-7.551 -28.285,-10.799 -0.373,-0.083 -0.739,-0.173 -1.084,-0.282 l 1.005,-0.646 c 21.425,3.818 41.444,8.644 59.593,14.476 3.644,1.084 7.169,2.221 10.546,3.411 4.266,1.7 8.715,3.389 13.337,5.073 13.585,5.517 25.477,11.722 35.398,18.56 2.601,2.363 5.878,4.66 9.786,6.897 7.497,5.813 14.041,11.995 19.637,18.441 17.68,2.097 35.48,4.473 53.396,7.145 -11.395,14.094 -22.903,27.886 -34.507,41.375 0.226,8.535 -0.394,17.525 -2.005,26.865 -1.347,4.305 -2.215,8.204 -2.538,11.697 -2.692,11.746 -7.261,24.376 -13.532,37.618 -2.266,4.364 -4.396,8.618 -6.395,12.753 -1.687,3.161 -3.501,6.379 -5.468,9.656 -9.416,16.558 -20.92,33.657 -34.11,50.94 l -1.183,0.212 c 0.186,-0.312 0.38,-0.619 0.602,-0.962"
                   style="fill:url(#radialGradient37456);stroke:none"
                   id="path37458"
                   inkscape:connector-curvature="0" /></g></g></g></g></g></g></g></svg>