<?xml version="1.0" encoding="UTF-8" standalone="no"?>
<!-- Created with Inkscape (http://www.inkscape.org/) -->

<svg
   xmlns:dc="http://purl.org/dc/elements/1.1/"
   xmlns:cc="http://creativecommons.org/ns#"
   xmlns:rdf="http://www.w3.org/1999/02/22-rdf-syntax-ns#"
   xmlns:svg="http://www.w3.org/2000/svg"
   xmlns="http://www.w3.org/2000/svg"
   xmlns:sodipodi="http://sodipodi.sourceforge.net/DTD/sodipodi-0.dtd"
   xmlns:inkscape="http://www.inkscape.org/namespaces/inkscape"
   version="1.1"
   id="svg17091"
   xml:space="preserve"
   width="800"
   height="800"
   viewBox="0 0 800 800"
   sodipodi:docname="logotype-concept-vector-svg.svg"
   inkscape:version="0.92.4 (5da689c313, 2019-01-14)"><metadata
     id="metadata17097"><rdf:RDF><cc:Work
         rdf:about=""><dc:format>image/svg+xml</dc:format><dc:type
           rdf:resource="http://purl.org/dc/dcmitype/StillImage" /><dc:title></dc:title></cc:Work></rdf:RDF></metadata><defs
     id="defs17095"><clipPath
       clipPathUnits="userSpaceOnUse"
       id="clipPath17107"><path
         d="M 0,600 H 600 V 0 H 0 Z"
         id="path17105"
         inkscape:connector-curvature="0" /></clipPath><linearGradient
       x1="0"
       y1="0"
       x2="1"
       y2="0"
       gradientUnits="userSpaceOnUse"
       gradientTransform="matrix(428.37939,0,0,-428.37939,88.13916,323.05127)"
       spreadMethod="pad"
       id="linearGradient17127"><stop
         style="stop-opacity:1;stop-color:#1aaeec"
         offset="0"
         id="stop17121" /><stop
         style="stop-opacity:1;stop-color:#4253a7"
         offset="0.488764"
         id="stop17123" /><stop
         style="stop-opacity:1;stop-color:#e70c8d"
         offset="1"
         id="stop17125" /></linearGradient></defs><sodipodi:namedview
     pagecolor="#ffffff"
     bordercolor="#666666"
     borderopacity="1"
     objecttolerance="10"
     gridtolerance="10"
     guidetolerance="10"
     inkscape:pageopacity="0"
     inkscape:pageshadow="2"
     inkscape:window-width="1920"
     inkscape:window-height="1018"
     id="namedview17093"
     showgrid="false"
     inkscape:zoom="1.06125"
     inkscape:cx="400"
     inkscape:cy="400"
     inkscape:window-x="-8"
     inkscape:window-y="-8"
     inkscape:window-maximized="1"
     inkscape:current-layer="g17099" /><g
     id="g17099"
     inkscape:groupmode="layer"
     inkscape:label="logotype-element-15-publicdomainvectors.org"
     transform="matrix(1.3333333,0,0,-1.3333333,0,800)"><g
       id="g17101"><g
         id="g17103"
         clip-path="url(#clipPath17107)"><g
           id="g17109"><g
             id="g17111"><g
               id="g17117"><g
                 id="g17119"><path
                   d="m 311.577,220.84 c 182.522,-37.268 200.797,188.942 197.677,204.837 l -51.807,-4.694 c 0,0 41.909,-200.491 -145.87,-200.143 m 78.456,37.783 c 142.939,119.464 -22.527,274.792 -36.899,282.263 l -28.631,-43.431 c 0,0 182.882,-92.237 65.53,-238.832 m 19.377,84.894 c -4.281,186.24 -228.888,153.719 -243.691,147.141 l 16.106,-49.464 c 0,0 186.139,85.473 227.585,-97.677 M 355.116,411.6 C 206.839,524.37 92.225,328.491 88.139,312.815 l 48.714,-18.249 c 0,0 49.23,198.821 218.263,117.034 m -87.08,0 C 87.421,365.982 169.105,154.246 178.812,141.277 l 44.64,26.707 c 0,0 -124.75,162.454 44.584,243.616 M 213.743,343.518 C 136.794,173.865 353.268,105.711 369.458,105.217 l 6.952,51.553 c 0,0 -204.789,3.751 -162.667,186.748 m 19.376,-84.895 c 84.665,-165.941 272.917,-39.187 283.4,-26.836 l -35.971,37.574 c 0,0 -130.621,-157.769 -247.429,-10.738"
                   style="fill:url(#linearGradient17127);stroke:none"
                   id="path17129"
                   inkscape:connector-curvature="0" /></g></g></g></g></g></g></g></svg>