<?xml version="1.0" encoding="UTF-8" standalone="no"?>
<!-- Created with Inkscape (http://www.inkscape.org/) -->

<svg
   xmlns:dc="http://purl.org/dc/elements/1.1/"
   xmlns:cc="http://creativecommons.org/ns#"
   xmlns:rdf="http://www.w3.org/1999/02/22-rdf-syntax-ns#"
   xmlns:svg="http://www.w3.org/2000/svg"
   xmlns="http://www.w3.org/2000/svg"
   xmlns:sodipodi="http://sodipodi.sourceforge.net/DTD/sodipodi-0.dtd"
   xmlns:inkscape="http://www.inkscape.org/namespaces/inkscape"
   version="1.1"
   id="svg71501"
   xml:space="preserve"
   width="800"
   height="800"
   viewBox="0 0 800 800"
   sodipodi:docname="logo-concept-13-publicdomainvectors.org.svg"
   inkscape:version="0.92.4 (5da689c313, 2019-01-14)"><metadata
     id="metadata71507"><rdf:RDF><cc:Work
         rdf:about=""><dc:format>image/svg+xml</dc:format><dc:type
           rdf:resource="http://purl.org/dc/dcmitype/StillImage" /><dc:title></dc:title></cc:Work></rdf:RDF></metadata><defs
     id="defs71505"><clipPath
       clipPathUnits="userSpaceOnUse"
       id="clipPath71517"><path
         d="M 0,600 H 600 V 0 H 0 Z"
         id="path71515"
         inkscape:connector-curvature="0" /></clipPath></defs><sodipodi:namedview
     pagecolor="#ffffff"
     bordercolor="#666666"
     borderopacity="1"
     objecttolerance="10"
     gridtolerance="10"
     guidetolerance="10"
     inkscape:pageopacity="0"
     inkscape:pageshadow="2"
     inkscape:window-width="797"
     inkscape:window-height="480"
     id="namedview71503"
     showgrid="false"
     inkscape:zoom="0.295"
     inkscape:cx="400"
     inkscape:cy="400"
     inkscape:window-x="0"
     inkscape:window-y="0"
     inkscape:window-maximized="0"
     inkscape:current-layer="g71509" /><g
     id="g71509"
     inkscape:groupmode="layer"
     inkscape:label="logo-concept-13-publicdomainvectors.org"
     transform="matrix(1.3333333,0,0,-1.3333333,0,800)"><g
       id="g71511"><g
         id="g71513"
         clip-path="url(#clipPath71517)"><path
           d="m 303.772,296.937 c -6.529,-22.858 -9.367,-46.845 -8.42,-70.562 0.441,-10.979 1.701,-21.906 3.66,-32.696 30.542,-5.184 62.209,-2.264 91.534,8.826 -1.687,3.602 -3.479,7.198 -5.445,10.765 -17.758,32.144 -46.427,61.543 -81.329,83.667"
           style="fill:#fbbc09;fill-opacity:1;fill-rule:nonzero;stroke:none"
           id="path71519"
           inkscape:connector-curvature="0" /><path
           d="m 282.318,309.161 c -39.024,20.01 -83.785,31.287 -127.344,32.65 5.005,-35.464 20.877,-69.725 47.723,-97.4 23.954,-24.693 53.414,-40.809 84.558,-48.319 -2.616,9.284 -4.751,18.765 -6.28,28.41 -4.375,27.554 -4.038,56.445 1.343,84.659"
           style="fill:#fbbc09;fill-opacity:1;fill-rule:nonzero;stroke:none"
           id="path71521"
           inkscape:connector-curvature="0" /><path
           d="m 278.712,381.255 c -16.53,17.083 -35.885,31.536 -56.897,42.575 -9.73,5.106 -19.821,9.48 -30.147,13.177 -19.76,-23.858 -33.064,-52.742 -38.123,-83.683 3.963,-0.341 7.972,-0.587 12.045,-0.668 36.718,-0.692 76.512,9.436 113.122,28.599"
           style="fill:#ec008c;fill-opacity:1;fill-rule:nonzero;stroke:none"
           id="path71523"
           inkscape:connector-curvature="0" /><path
           d="m 300.026,393.722 c 36.841,23.793 68.989,56.918 91.948,93.96 -33.216,13.397 -70.823,16.782 -108.213,7.37 -33.362,-8.399 -62.049,-25.852 -84.125,-49.068 9.349,-2.379 18.628,-5.271 27.744,-8.768 26.05,-9.987 50.902,-24.726 72.646,-43.494"
           style="fill:#ec008c;fill-opacity:1;fill-rule:nonzero;stroke:none"
           id="path71525"
           inkscape:connector-curvature="0" /><path
           d="m 364.265,360.799 c 23.058,5.774 45.253,15.311 65.318,27.987 9.288,5.873 18.121,12.427 26.486,19.52 -10.782,29.041 -29.144,55.005 -53.412,74.857 -2.275,-3.262 -4.492,-6.612 -6.598,-10.098 C 377.1,441.613 365.974,402.086 364.265,360.799"
           style="fill:#a3a1a1;fill-opacity:1;fill-rule:nonzero;stroke:none"
           id="path71527"
           inkscape:connector-curvature="0" /><path
           d="m 364.404,336.107 c 2.184,-43.802 14.798,-88.204 35.398,-126.609 28.211,22.067 49.944,52.943 60.491,90.03 9.405,33.092 8.633,66.663 -0.435,97.389 -6.733,-6.908 -13.876,-13.497 -21.465,-19.644 -21.673,-17.566 -46.864,-31.719 -73.989,-41.166"
           style="fill:#a3a1a1;fill-opacity:1;fill-rule:nonzero;stroke:none"
           id="path71529"
           inkscape:connector-curvature="0" /></g></g></g></svg>