<?xml version="1.0" encoding="UTF-8" standalone="no"?>
<!-- Created with Inkscape (http://www.inkscape.org/) -->
<svg xmlns:inkscape="http://www.inkscape.org/namespaces/inkscape" xmlns:rdf="http://www.w3.org/1999/02/22-rdf-syntax-ns#" xmlns="http://www.w3.org/2000/svg" xmlns:cc="http://web.resource.org/cc/" xmlns:dc="http://purl.org/dc/elements/1.1/" xmlns:svg="http://www.w3.org/2000/svg" xmlns:sodipodi="http://sodipodi.sourceforge.net/DTD/sodipodi-0.dtd" xmlns:ns1="http://sozi.baierouge.fr" xmlns:xlink="http://www.w3.org/1999/xlink" id="svg2" viewBox="0 0 720 720" version="1.1" inkscape:version="0.91 r13725">
  <path id="path2983" style="stroke:#ff0000;stroke-width:2;display:none;fill:none" d="m329.69 144.95s-9.3692-18.562-37.653-6.364"/>
  <path id="path2983-8" style="stroke:#ff0000;stroke-width:2;display:none;fill:none" d="m326.89 144.95s-9.3692-18.562-37.653-6.364"/>
  <g id="g3177" transform="matrix(2.7148 0 0 2.7148 -615.54 -353.49)">
    <path id="path3126" style="fill:#ff0000" d="m359.34 146.78-58 58 58 58.031-21.219-79.25 45.75-12.281-24.531-24.5z"/>
    <path id="path3149" style="fill:#ff8000" d="m417.36 162.33-79.23 21.23 21.21 79.25l21.249-79.242 45.761 12.239-8.9947-33.483z"/>
    <path id="path3151" style="fill:#ffff00" d="m459.83 204.8-79.23-21.23-21.26 79.24l58.023-58.001 33.511 33.48 8.952-33.495z"/>
    <path id="path3153" style="fill:#80ff00" d="m475.38 262.81-58-58-58.031 58 79.25-21.219 12.281 45.75 24.5-24.531z"/>
    <path id="path3155" style="fill:#00ff00" d="m459.82 320.82-21.229-79.229-79.257 21.214 79.242 21.249-12.239 45.761 33.483-8.9947z"/>
    <path id="path3157" style="fill:#00ff80" d="m417.35 363.29 21.229-79.229-79.245-21.257 58.001 58.023-33.48 33.511 33.495 8.952z"/>
    <path id="path3163" style="fill:#00ffff" d="m359.34 378.84 58-58-58-58.031 21.219 79.25-45.75 12.281 24.531 24.5z"/>
    <path id="path3165" style="fill:#0080ff" d="m301.33 363.3 79.23-21.23-21.22-79.26l-21.249 79.242-45.761-12.239 8.9947 33.483z"/>
    <path id="path3167" style="fill:#0000ff" d="m258.87 320.82 79.229 21.229 21.257-79.245-58.023 58.001-33.511-33.48-8.952 33.495z"/>
    <path id="path3169" style="fill:#8000ff" d="m243.31 262.81 58 58l58.031-58-79.25 21.22-12.281-45.75-24.5 24.531z"/>
    <path id="path3171" style="fill:#ff00ff" d="m258.85 204.79 21.229 79.229 79.257-21.214-79.242-21.249 12.239-45.761-33.483 8.9947z"/>
    <path id="path3175" style="fill:#ff0080" d="m301.34 162.32-21.229 79.229 79.245 21.257-58.001-58.023 33.48-33.511-33.495-8.952z"/>
  </g>
  <metadata>
    <rdf:RDF>
      <cc:Work>
        <dc:format>image/svg+xml</dc:format>
        <dc:type rdf:resource="http://purl.org/dc/dcmitype/StillImage"/>
        <cc:license rdf:resource="http://creativecommons.org/licenses/publicdomain/"/>
        <dc:publisher>
          <cc:Agent rdf:about="http://openclipart.org/">
            <dc:title>Openclipart</dc:title>
          </cc:Agent>
        </dc:publisher>
        <dc:title>12 square dodecagram</dc:title>
        <dc:date>2011-07-11T21:58:29</dc:date>
        <dc:description>12 square dodecagram</dc:description>
        <dc:source>https://openclipart.org/detail/149113/12-square-dodecagram-by-10binary</dc:source>
        <dc:creator>
          <cc:Agent>
            <dc:title>10binary</dc:title>
          </cc:Agent>
        </dc:creator>
        <dc:subject>
          <rdf:Bag>
            <rdf:li>12</rdf:li>
            <rdf:li>dodecagram</rdf:li>
            <rdf:li>square</rdf:li>
          </rdf:Bag>
        </dc:subject>
      </cc:Work>
      <cc:License rdf:about="http://creativecommons.org/licenses/publicdomain/">
        <cc:permits rdf:resource="http://creativecommons.org/ns#Reproduction"/>
        <cc:permits rdf:resource="http://creativecommons.org/ns#Distribution"/>
        <cc:permits rdf:resource="http://creativecommons.org/ns#DerivativeWorks"/>
      </cc:License>
    </rdf:RDF>
  </metadata>
</svg>
