<?xml version="1.0" encoding="UTF-8" standalone="no"?>
<!-- Created with Inkscape (http://www.inkscape.org/) -->

<svg
   xmlns:dc="http://purl.org/dc/elements/1.1/"
   xmlns:cc="http://creativecommons.org/ns#"
   xmlns:rdf="http://www.w3.org/1999/02/22-rdf-syntax-ns#"
   xmlns:svg="http://www.w3.org/2000/svg"
   xmlns="http://www.w3.org/2000/svg"
   xmlns:sodipodi="http://sodipodi.sourceforge.net/DTD/sodipodi-0.dtd"
   xmlns:inkscape="http://www.inkscape.org/namespaces/inkscape"
   version="1.1"
   id="svg4225"
   xml:space="preserve"
   width="880"
   height="880"
   viewBox="0 0 880 880"
   sodipodi:docname="globe-publicdomainvectors [Converted].svg"
   inkscape:version="0.92.4 (5da689c313, 2019-01-14)"><metadata
     id="metadata4231"><rdf:RDF><cc:Work
         rdf:about=""><dc:format>image/svg+xml</dc:format><dc:type
           rdf:resource="http://purl.org/dc/dcmitype/StillImage" /><dc:title /></cc:Work></rdf:RDF></metadata><defs
     id="defs4229"><clipPath
       clipPathUnits="userSpaceOnUse"
       id="clipPath4241"><path
         d="M 0,660 H 660 V 0 H 0 Z"
         id="path4239"
         inkscape:connector-curvature="0" /></clipPath></defs><sodipodi:namedview
     pagecolor="#ffffff"
     bordercolor="#666666"
     borderopacity="1"
     objecttolerance="10"
     gridtolerance="10"
     guidetolerance="10"
     inkscape:pageopacity="0"
     inkscape:pageshadow="2"
     inkscape:window-width="1920"
     inkscape:window-height="1018"
     id="namedview4227"
     showgrid="false"
     inkscape:zoom="0.64318182"
     inkscape:cx="577.9661"
     inkscape:cy="384.0678"
     inkscape:window-x="-8"
     inkscape:window-y="-8"
     inkscape:window-maximized="1"
     inkscape:current-layer="g4233" /><g
     id="g4233"
     inkscape:groupmode="layer"
     inkscape:label="globe-publicdomainvectors [Converted]"
     transform="matrix(1.3333333,0,0,-1.3333333,0,880)"><g
       id="g4235"><g
         id="g4237"
         clip-path="url(#clipPath4241)"><path
           d="m 203.454,126.439 c -6.189,3.348 -11.821,8.12 -19.142,8.12 0,5.584 -5.811,8.111 -9.527,11.574 5.607,-3.893 11.669,-7.623 18.174,-11.129 3.446,-3.352 6.97,-6.203 10.495,-8.565"
           style="fill:#ffffff;fill-opacity:1;fill-rule:nonzero;stroke:none"
           id="path4243"
           inkscape:connector-curvature="0" /><path
           d="m 223.764,116.791 c -7.146,2.934 -13.931,6.162 -20.31,9.648 -3.525,2.362 -7.049,5.213 -10.495,8.565 6.768,-3.613 13.989,-6.981 21.609,-10.09 3.04,-3.195 6.098,-5.934 9.196,-8.123"
           style="fill:#231f20;fill-opacity:1;fill-rule:nonzero;stroke:none"
           id="path4245"
           inkscape:connector-curvature="0" /><path
           d="m 246.822,108.674 c -8.008,2.383 -15.711,5.094 -23.058,8.117 -3.098,2.189 -6.156,4.928 -9.196,8.123 7.882,-3.187 16.181,-6.039 24.833,-8.551 2.407,-3.086 4.923,-5.631 7.421,-7.689"
           style="fill:#ffffff;fill-opacity:1;fill-rule:nonzero;stroke:none"
           id="path4247"
           inkscape:connector-curvature="0" /><path
           d="m 272.198,102.516 c -8.704,1.697 -17.186,3.732 -25.376,6.158 -2.498,2.058 -5.014,4.603 -7.421,7.689 8.885,-2.547 18.093,-4.758 27.583,-6.523 1.694,-2.934 3.423,-5.395 5.214,-7.324"
           style="fill:#231f20;fill-opacity:1;fill-rule:nonzero;stroke:none"
           id="path4249"
           inkscape:connector-curvature="0" /><path
           d="m 299.255,98.676 c -9.173,0.865 -18.214,2.148 -27.057,3.84 -1.791,1.929 -3.52,4.39 -5.214,7.324 9.655,-1.815 19.544,-3.188 29.594,-4.082 0.836,-2.836 1.749,-5.19 2.677,-7.082"
           style="fill:#ffffff;fill-opacity:1;fill-rule:nonzero;stroke:none"
           id="path4251"
           inkscape:connector-curvature="0" /><path
           d="m 327.192,97.393 c -9.356,0 -18.69,0.443 -27.937,1.283 -0.928,1.892 -1.841,4.246 -2.677,7.082 10.136,-0.944 20.38,-1.369 30.651,-1.369 0,-2.787 -0.037,-5.11 -0.037,-6.996"
           style="fill:#231f20;fill-opacity:1;fill-rule:nonzero;stroke:none"
           id="path4253"
           inkscape:connector-curvature="0" /><path
           d="m 355.117,98.746 c -9.236,-0.91 -18.568,-1.353 -27.925,-1.353 0,1.886 0.037,4.209 0.037,6.996 10.269,0 20.506,0.502 30.636,1.441 -0.847,-2.84 -1.758,-5.211 -2.748,-7.084"
           style="fill:#ffffff;fill-opacity:1;fill-rule:nonzero;stroke:none"
           id="path4255"
           inkscape:connector-curvature="0" /><path
           d="m 382.14,102.65 c -8.827,-1.72 -17.857,-3.039 -27.023,-3.904 0.99,1.873 1.901,4.244 2.748,7.084 10.036,0.961 19.912,2.33 29.552,4.154 -1.715,-2.937 -3.439,-5.427 -5.277,-7.334"
           style="fill:#231f20;fill-opacity:1;fill-rule:nonzero;stroke:none"
           id="path4257"
           inkscape:connector-curvature="0" /><path
           d="m 407.462,108.865 c -8.167,-2.449 -16.623,-4.552 -25.322,-6.215 1.838,1.907 3.562,4.397 5.277,7.334 9.463,1.821 18.657,4.01 27.518,6.582 -2.454,-3.066 -4.963,-5.632 -7.473,-7.701"
           style="fill:#ffffff;fill-opacity:1;fill-rule:nonzero;stroke:none"
           id="path4259"
           inkscape:connector-curvature="0" /><path
           d="m 430.451,117.029 c -7.321,-3.039 -15.002,-5.767 -22.989,-8.164 2.51,2.069 5.019,4.635 7.473,7.701 8.624,2.538 16.902,5.393 24.753,8.598 -3.032,-3.219 -6.107,-5.971 -9.237,-8.135"
           style="fill:#231f20;fill-opacity:1;fill-rule:nonzero;stroke:none"
           id="path4261"
           inkscape:connector-curvature="0" /><path
           d="m 450.686,126.711 c -6.364,-3.475 -13.116,-6.727 -20.235,-9.682 3.13,2.164 6.205,4.916 9.237,8.135 7.611,3.076 14.786,6.494 21.52,10.123 -3.482,-3.326 -6.99,-6.209 -10.522,-8.576"
           style="fill:#ffffff;fill-opacity:1;fill-rule:nonzero;stroke:none"
           id="path4263"
           inkscape:connector-curvature="0" /><path
           d="m 469.961,134.559 c -7.473,0 -13.118,-4.483 -19.275,-7.848 3.532,2.367 7.04,5.25 10.522,8.576 6.47,3.522 12.531,7.219 18.082,11.151 -3.719,-3.467 -9.329,-6.083 -9.329,-11.879"
           style="fill:#231f20;fill-opacity:1;fill-rule:nonzero;stroke:none"
           id="path4265"
           inkscape:connector-curvature="0" /><path
           d="m 174.785,146.133 c -5.366,3.756 -10.309,7.652 -14.758,11.703 -4.038,3.705 -8.014,7.879 -11.865,12.518 4.51,-4.045 9.564,-7.938 15.065,-11.731 3.758,-4.668 7.602,-8.863 11.558,-12.49"
           style="fill:#ffffff;fill-opacity:1;fill-rule:nonzero;stroke:none"
           id="path4267"
           inkscape:connector-curvature="0" /><path
           d="m 192.959,135.004 c -6.505,3.506 -12.567,7.236 -18.174,11.129 -3.956,3.627 -7.8,7.822 -11.558,12.49 5.806,-3.928 12.109,-7.723 18.928,-11.258 3.506,-4.666 7.114,-8.802 10.804,-12.361"
           style="fill:#231f20;fill-opacity:1;fill-rule:nonzero;stroke:none"
           id="path4269"
           inkscape:connector-curvature="0" /><path
           d="m 214.568,124.914 c -7.62,3.109 -14.841,6.477 -21.609,10.09 -3.69,3.559 -7.298,7.695 -10.804,12.361 7.124,-3.695 14.756,-7.154 22.873,-10.293 3.097,-4.617 6.273,-8.693 9.54,-12.158"
           style="fill:#ffffff;fill-opacity:1;fill-rule:nonzero;stroke:none"
           id="path4271"
           inkscape:connector-curvature="0" /><path
           d="m 239.401,116.363 c -8.652,2.512 -16.951,5.364 -24.833,8.551 -3.267,3.465 -6.443,7.541 -9.54,12.158 8.423,-3.265 17.316,-6.203 26.624,-8.785 2.518,-4.545 5.059,-8.562 7.749,-11.924"
           style="fill:#231f20;fill-opacity:1;fill-rule:nonzero;stroke:none"
           id="path4273"
           inkscape:connector-curvature="0" /><path
           d="m 266.984,109.84 c -9.49,1.765 -18.698,3.976 -27.583,6.523 -2.69,3.362 -5.231,7.379 -7.749,11.924 9.591,-2.642 19.561,-4.93 29.86,-6.742 1.712,-4.492 3.597,-8.371 5.472,-11.705"
           style="fill:#ffffff;fill-opacity:1;fill-rule:nonzero;stroke:none"
           id="path4275"
           inkscape:connector-curvature="0" /><path
           d="m 296.578,105.758 c -10.05,0.894 -19.939,2.267 -29.594,4.082 -1.875,3.334 -3.76,7.213 -5.472,11.705 10.509,-1.861 21.283,-3.277 32.247,-4.238 0.911,-4.409 1.783,-8.274 2.819,-11.549"
           style="fill:#231f20;fill-opacity:1;fill-rule:nonzero;stroke:none"
           id="path4277"
           inkscape:connector-curvature="0" /><path
           d="m 327.229,104.389 c -10.271,0 -20.515,0.425 -30.651,1.369 -1.036,3.275 -1.908,7.14 -2.819,11.549 11.076,-0.971 22.275,-1.455 33.508,-1.424 0,-4.387 0.031,-8.207 -0.038,-11.494"
           style="fill:#ffffff;fill-opacity:1;fill-rule:nonzero;stroke:none"
           id="path4279"
           inkscape:connector-curvature="0" /><path
           d="m 357.865,105.83 c -10.13,-0.939 -20.367,-1.441 -30.636,-1.441 0.069,3.287 0.038,7.107 0.038,11.494 11.233,0 22.426,0.498 33.493,1.5 -0.91,-4.416 -1.857,-8.266 -2.895,-11.553"
           style="fill:#231f20;fill-opacity:1;fill-rule:nonzero;stroke:none"
           id="path4281"
           inkscape:connector-curvature="0" /><path
           d="m 387.417,109.984 c -9.64,-1.824 -19.516,-3.193 -29.552,-4.154 1.038,3.287 1.985,7.137 2.895,11.553 10.951,0.961 21.707,2.422 32.194,4.308 -1.777,-4.476 -3.62,-8.386 -5.537,-11.707"
           style="fill:#ffffff;fill-opacity:1;fill-rule:nonzero;stroke:none"
           id="path4283"
           inkscape:connector-curvature="0" /><path
           d="m 414.935,116.566 c -8.861,-2.572 -18.055,-4.761 -27.518,-6.582 1.917,3.321 3.76,7.231 5.537,11.707 10.276,1.852 20.218,4.151 29.782,6.805 -2.533,-4.547 -5.103,-8.558 -7.801,-11.93"
           style="fill:#231f20;fill-opacity:1;fill-rule:nonzero;stroke:none"
           id="path4285"
           inkscape:connector-curvature="0" /><path
           d="m 439.688,125.164 c -7.851,-3.205 -16.129,-6.06 -24.753,-8.598 2.698,3.372 5.268,7.383 7.801,11.93 9.28,2.606 18.143,5.555 26.532,8.832 -3.102,-4.623 -6.306,-8.691 -9.58,-12.164"
           style="fill:#ffffff;fill-opacity:1;fill-rule:nonzero;stroke:none"
           id="path4287"
           inkscape:connector-curvature="0" /><path
           d="m 461.208,135.287 c -6.734,-3.629 -13.909,-7.047 -21.52,-10.123 3.274,3.473 6.478,7.541 9.58,12.164 8.073,3.178 15.684,6.617 22.771,10.324 -3.51,-4.67 -7.168,-8.767 -10.831,-12.365"
           style="fill:#231f20;fill-opacity:1;fill-rule:nonzero;stroke:none"
           id="path4289"
           inkscape:connector-curvature="0" /><path
           d="m 479.29,146.438 c -5.551,-3.932 -11.612,-7.629 -18.082,-11.151 3.663,3.598 7.321,7.695 10.831,12.365 6.795,3.524 13.073,7.313 18.821,11.278 -3.757,-4.67 -7.612,-8.862 -11.57,-12.492"
           style="fill:#ffffff;fill-opacity:1;fill-rule:nonzero;stroke:none"
           id="path4291"
           inkscape:connector-curvature="0" /><path
           d="m 493.959,158.148 c -4.418,-4.054 -9.322,-7.966 -14.669,-11.71 3.958,3.63 7.813,7.822 11.57,12.492 5.482,3.777 10.473,7.707 14.968,11.736 -3.851,-4.637 -7.829,-8.809 -11.869,-12.518"
           style="fill:#231f20;fill-opacity:1;fill-rule:nonzero;stroke:none"
           id="path4293"
           inkscape:connector-curvature="0" /><path
           d="m 148.162,170.354 c -4.304,3.835 -8.152,7.773 -11.478,11.796 -3.998,4.752 -7.821,9.987 -11.496,15.623 3.253,-3.849 7.064,-7.609 11.32,-11.332 3.728,-5.845 7.594,-11.242 11.654,-16.087"
           style="fill:#ffffff;fill-opacity:1;fill-rule:nonzero;stroke:none"
           id="path4295"
           inkscape:connector-curvature="0" /><path
           d="m 163.227,158.623 c -5.501,3.793 -10.555,7.686 -15.065,11.731 -4.06,4.845 -7.926,10.242 -11.654,16.087 4.524,-3.927 9.621,-7.734 15.264,-11.373 3.657,-6.021 7.526,-11.484 11.455,-16.445"
           style="fill:#231f20;fill-opacity:1;fill-rule:nonzero;stroke:none"
           id="path4297"
           inkscape:connector-curvature="0" /><path
           d="m 182.155,147.365 c -6.819,3.535 -13.122,7.33 -18.928,11.258 -3.929,4.961 -7.798,10.424 -11.455,16.445 5.95,-3.867 12.487,-7.554 19.583,-11.009 3.45,-6.147 7.063,-11.723 10.8,-16.694"
           style="fill:#ffffff;fill-opacity:1;fill-rule:nonzero;stroke:none"
           id="path4299"
           inkscape:connector-curvature="0" /><path
           d="m 205.028,137.072 c -8.117,3.139 -15.749,6.598 -22.873,10.293 -3.737,4.971 -7.35,10.547 -10.8,16.694 7.45,-3.659 15.484,-7.059 24.06,-10.147 3.056,-6.238 6.317,-11.828 9.613,-16.84"
           style="fill:#231f20;fill-opacity:1;fill-rule:nonzero;stroke:none"
           id="path4301"
           inkscape:connector-curvature="0" /><path
           d="m 231.652,128.287 c -9.308,2.582 -18.201,5.52 -26.624,8.785 -3.296,5.012 -6.557,10.602 -9.613,16.84 8.933,-3.275 18.42,-6.176 28.376,-8.728 2.486,-6.28 5.158,-11.895 7.861,-16.897"
           style="fill:#ffffff;fill-opacity:1;fill-rule:nonzero;stroke:none"
           id="path4303"
           inkscape:connector-curvature="0" /><path
           d="m 261.512,121.545 c -10.299,1.812 -20.269,4.1 -29.86,6.742 -2.703,5.002 -5.375,10.617 -7.861,16.897 10.29,-2.672 21.03,-4.928 32.141,-6.737 1.777,-6.283 3.617,-11.926 5.58,-16.902"
           style="fill:#231f20;fill-opacity:1;fill-rule:nonzero;stroke:none"
           id="path4305"
           inkscape:connector-curvature="0" /><path
           d="m 293.759,117.307 c -10.964,0.961 -21.738,2.377 -32.247,4.238 -1.963,4.976 -3.803,10.619 -5.58,16.902 11.366,-1.894 23.045,-3.295 34.942,-4.254 0.859,-6.287 1.861,-11.904 2.885,-16.886"
           style="fill:#ffffff;fill-opacity:1;fill-rule:nonzero;stroke:none"
           id="path4307"
           inkscape:connector-curvature="0" /><path
           d="m 327.267,115.883 c -11.233,-0.031 -22.432,0.453 -33.508,1.424 -1.024,4.982 -2.026,10.599 -2.885,16.886 12.039,-0.976 24.213,-1.463 36.433,-1.431 -0.062,-6.276 -0.04,-11.893 -0.04,-16.879"
           style="fill:#231f20;fill-opacity:1;fill-rule:nonzero;stroke:none"
           id="path4309"
           inkscape:connector-curvature="0" /><path
           d="m 360.76,117.383 c -11.067,-1.002 -22.26,-1.5 -33.493,-1.5 0,4.986 -0.022,10.603 0.04,16.879 12.216,0 24.384,0.5 36.409,1.509 -0.918,-6.283 -1.927,-11.902 -2.956,-16.888"
           style="fill:#ffffff;fill-opacity:1;fill-rule:nonzero;stroke:none"
           id="path4311"
           inkscape:connector-curvature="0" /><path
           d="m 392.954,121.691 c -10.487,-1.886 -21.243,-3.347 -32.194,-4.308 1.029,4.986 2.038,10.605 2.956,16.888 11.886,0.958 23.544,2.403 34.886,4.325 -1.781,-6.287 -3.681,-11.916 -5.648,-16.905"
           style="fill:#231f20;fill-opacity:1;fill-rule:nonzero;stroke:none"
           id="path4313"
           inkscape:connector-curvature="0" /><path
           d="m 422.736,128.496 c -9.564,-2.654 -19.506,-4.953 -29.782,-6.805 1.967,4.989 3.867,10.618 5.648,16.905 11.082,1.845 21.782,4.146 32.051,6.797 -2.543,-6.264 -5.206,-11.887 -7.917,-16.897"
           style="fill:#ffffff;fill-opacity:1;fill-rule:nonzero;stroke:none"
           id="path4315"
           inkscape:connector-curvature="0" /><path
           d="m 449.268,137.328 c -8.389,-3.277 -17.252,-6.226 -26.532,-8.832 2.711,5.01 5.374,10.633 7.917,16.897 9.913,2.605 19.357,5.527 28.267,8.771 -3.107,-6.215 -6.306,-11.851 -9.652,-16.836"
           style="fill:#231f20;fill-opacity:1;fill-rule:nonzero;stroke:none"
           id="path4317"
           inkscape:connector-curvature="0" /><path
           d="m 472.039,147.652 c -7.087,-3.707 -14.698,-7.146 -22.771,-10.324 3.346,4.985 6.545,10.621 9.652,16.836 8.529,3.129 16.535,6.508 23.94,10.18 -3.436,-6.158 -7.041,-11.746 -10.821,-16.692"
           style="fill:#ffffff;fill-opacity:1;fill-rule:nonzero;stroke:none"
           id="path4319"
           inkscape:connector-curvature="0" /><path
           d="m 490.86,158.93 c -5.748,-3.965 -12.026,-7.754 -18.821,-11.278 3.78,4.946 7.385,10.534 10.821,16.692 7.069,3.439 13.548,7.166 19.467,11.023 -3.702,-5.992 -7.494,-11.508 -11.467,-16.437"
           style="fill:#231f20;fill-opacity:1;fill-rule:nonzero;stroke:none"
           id="path4321"
           inkscape:connector-curvature="0" /><path
           d="m 505.828,170.666 c -4.495,-4.029 -9.486,-7.959 -14.968,-11.736 3.973,4.929 7.765,10.445 11.467,16.437 5.585,3.672 10.651,7.469 15.153,11.377 -3.725,-5.842 -7.633,-11.201 -11.652,-16.078"
           style="fill:#ffffff;fill-opacity:1;fill-rule:nonzero;stroke:none"
           id="path4323"
           inkscape:connector-curvature="0" /><path
           d="m 517.568,182.168 c -5.231,0 -7.48,-7.648 -11.74,-11.502 4.019,4.877 7.927,10.236 11.652,16.078 4.227,3.719 7.969,7.508 11.223,11.328 -3.671,-5.634 -11.135,-9.672 -11.135,-15.904"
           style="fill:#231f20;fill-opacity:1;fill-rule:nonzero;stroke:none"
           id="path4325"
           inkscape:connector-curvature="0" /><path
           d="m 136.508,186.441 c -4.287,3.69 -8.067,7.483 -11.32,11.332 -3.803,5.872 -7.397,12.196 -10.765,18.93 3.139,-3.539 6.846,-7.015 11.075,-10.406 3.429,-7.111 7.11,-13.744 11.01,-19.856"
           style="fill:#231f20;fill-opacity:1;fill-rule:nonzero;stroke:none"
           id="path4327"
           inkscape:connector-curvature="0" /><path
           d="m 151.772,175.068 c -5.643,3.639 -10.711,7.481 -15.264,11.373 -3.9,6.112 -7.581,12.745 -11.01,19.856 4.543,-3.608 9.64,-7.176 15.358,-10.533 3.395,-7.45 7.079,-14.344 10.916,-20.696"
           style="fill:#ffffff;fill-opacity:1;fill-rule:nonzero;stroke:none"
           id="path4329"
           inkscape:connector-curvature="0" /><path
           d="m 171.355,164.059 c -7.096,3.455 -13.633,7.142 -19.583,11.009 -3.837,6.352 -7.521,13.246 -10.916,20.696 6.082,-3.608 12.807,-7.032 20.119,-10.282 3.214,-7.752 6.73,-14.884 10.38,-21.423"
           style="fill:#231f20;fill-opacity:1;fill-rule:nonzero;stroke:none"
           id="path4331"
           inkscape:connector-curvature="0" /><path
           d="m 195.415,153.912 c -8.576,3.088 -16.61,6.488 -24.06,10.147 -3.65,6.539 -7.166,13.671 -10.38,21.423 7.763,-3.416 16.143,-6.632 25.128,-9.554 2.929,-7.977 5.981,-15.354 9.312,-22.016"
           style="fill:#ffffff;fill-opacity:1;fill-rule:nonzero;stroke:none"
           id="path4333"
           inkscape:connector-curvature="0" /><path
           d="m 223.791,145.184 c -9.956,2.552 -19.443,5.453 -28.376,8.728 -3.331,6.662 -6.383,14.039 -9.312,22.016 9.437,-3.071 19.459,-5.856 30.022,-8.274 2.363,-8.179 4.923,-15.679 7.666,-22.47"
           style="fill:#231f20;fill-opacity:1;fill-rule:nonzero;stroke:none"
           id="path4335"
           inkscape:connector-curvature="0" /><path
           d="m 255.932,138.447 c -11.111,1.809 -21.851,4.065 -32.141,6.737 -2.743,6.791 -5.303,14.291 -7.666,22.47 10.971,-2.547 22.444,-4.679 34.337,-6.427 1.673,-8.303 3.513,-15.895 5.47,-22.78"
           style="fill:#ffffff;fill-opacity:1;fill-rule:nonzero;stroke:none"
           id="path4337"
           inkscape:connector-curvature="0" /><path
           d="m 290.874,134.193 c -11.897,0.959 -23.576,2.36 -34.942,4.254 -1.957,6.885 -3.797,14.477 -5.47,22.78 12.21,-1.795 24.763,-3.176 37.576,-4.075 0.864,-8.371 1.82,-16.017 2.836,-22.959"
           style="fill:#231f20;fill-opacity:1;fill-rule:nonzero;stroke:none"
           id="path4339"
           inkscape:connector-curvature="0" /><path
           d="m 327.307,132.762 c -12.22,-0.032 -24.394,0.455 -36.433,1.431 -1.016,6.942 -1.972,14.588 -2.836,22.959 12.982,-0.939 26.117,-1.373 39.307,-1.373 0,-8.392 -0.038,-16.058 -0.038,-23.017"
           style="fill:#ffffff;fill-opacity:1;fill-rule:nonzero;stroke:none"
           id="path4341"
           inkscape:connector-curvature="0" /><path
           d="m 363.716,134.271 c -12.025,-1.009 -24.193,-1.509 -36.409,-1.509 0,6.959 0.038,14.625 0.038,23.017 13.185,0.034 26.313,0.502 39.282,1.45 -0.867,-8.372 -1.894,-16.014 -2.911,-22.958"
           style="fill:#231f20;fill-opacity:1;fill-rule:nonzero;stroke:none"
           id="path4343"
           inkscape:connector-curvature="0" /><path
           d="m 398.602,138.596 c -11.342,-1.922 -23,-3.367 -34.886,-4.325 1.017,6.944 2.044,14.586 2.911,22.958 12.797,0.927 25.327,2.318 37.51,4.14 -1.735,-8.293 -3.577,-15.885 -5.535,-22.773"
           style="fill:#ffffff;fill-opacity:1;fill-rule:nonzero;stroke:none"
           id="path4345"
           inkscape:connector-curvature="0" /><path
           d="m 430.653,145.393 c -10.269,-2.651 -20.969,-4.952 -32.051,-6.797 1.958,6.888 3.8,14.48 5.535,22.773 11.861,1.754 23.295,3.945 34.234,6.483 -2.372,-8.178 -4.974,-15.666 -7.718,-22.459"
           style="fill:#231f20;fill-opacity:1;fill-rule:nonzero;stroke:none"
           id="path4347"
           inkscape:connector-curvature="0" /><path
           d="m 458.92,154.164 c -8.91,-3.244 -18.354,-6.166 -28.267,-8.771 2.744,6.793 5.346,14.281 7.718,22.459 10.52,2.455 20.502,5.238 29.898,8.314 -2.884,-7.992 -6.071,-15.311 -9.349,-22.002"
           style="fill:#ffffff;fill-opacity:1;fill-rule:nonzero;stroke:none"
           id="path4349"
           inkscape:connector-curvature="0" /><path
           d="m 482.86,164.344 c -7.405,-3.672 -15.411,-7.051 -23.94,-10.18 3.278,6.691 6.465,14.01 9.349,22.002 8.931,2.957 17.278,6.154 24.995,9.58 -3.267,-7.725 -6.687,-14.902 -10.404,-21.402"
           style="fill:#231f20;fill-opacity:1;fill-rule:nonzero;stroke:none"
           id="path4351"
           inkscape:connector-curvature="0" /><path
           d="m 502.327,175.367 c -5.919,-3.857 -12.398,-7.584 -19.467,-11.023 3.717,6.5 7.137,13.677 10.404,21.402 7.266,3.26 13.953,6.676 19.987,10.297 -3.404,-7.441 -7.089,-14.328 -10.924,-20.676"
           style="fill:#ffffff;fill-opacity:1;fill-rule:nonzero;stroke:none"
           id="path4353"
           inkscape:connector-curvature="0" /><path
           d="m 517.48,186.744 c -4.502,-3.908 -9.568,-7.705 -15.153,-11.377 3.835,6.348 7.52,13.235 10.924,20.676 5.658,3.387 10.763,6.891 15.237,10.533 -3.425,-7.103 -7.112,-13.724 -11.008,-19.832"
           style="fill:#231f20;fill-opacity:1;fill-rule:nonzero;stroke:none"
           id="path4355"
           inkscape:connector-curvature="0" /><path
           d="m 528.703,198.072 c -3.254,-3.82 -6.996,-7.609 -11.223,-11.328 3.896,6.108 7.583,12.729 11.008,19.832 4.206,3.371 7.849,6.877 10.97,10.401 -3.363,-6.727 -6.956,-13.043 -10.755,-18.905"
           style="fill:#ffffff;fill-opacity:1;fill-rule:nonzero;stroke:none"
           id="path4357"
           inkscape:connector-curvature="0" /><path
           d="m 125.498,206.297 c -4.229,3.391 -7.936,6.867 -11.075,10.406 -3.473,6.981 -6.643,14.401 -9.565,22.18 3.025,-3.059 6.629,-6.061 10.779,-8.973 2.978,-8.33 6.293,-16.213 9.861,-23.613"
           style="fill:#ffffff;fill-opacity:1;fill-rule:nonzero;stroke:none"
           id="path4359"
           inkscape:connector-curvature="0" /><path
           d="m 140.856,195.764 c -5.718,3.357 -10.831,6.906 -15.358,10.533 -3.568,7.4 -6.883,15.283 -9.861,23.613 4.487,-3.18 9.641,-6.197 15.362,-9.152 2.981,-8.85 6.233,-17.219 9.857,-24.994"
           style="fill:#231f20;fill-opacity:1;fill-rule:nonzero;stroke:none"
           id="path4361"
           inkscape:connector-curvature="0" /><path
           d="m 160.975,185.482 c -7.312,3.25 -14.037,6.674 -20.119,10.282 -3.624,7.775 -6.876,16.144 -9.857,24.994 6.184,-3.158 13.038,-6.16 20.529,-9 2.841,-9.346 6.011,-18.117 9.447,-26.276"
           style="fill:#ffffff;fill-opacity:1;fill-rule:nonzero;stroke:none"
           id="path4363"
           inkscape:connector-curvature="0" /><path
           d="m 186.103,175.928 c -8.985,2.922 -17.365,6.138 -25.128,9.554 -3.436,8.159 -6.606,16.93 -9.447,26.276 8.009,-3.037 16.707,-5.826 26.037,-8.426 2.585,-9.769 5.413,-18.928 8.538,-27.404"
           style="fill:#231f20;fill-opacity:1;fill-rule:nonzero;stroke:none"
           id="path4365"
           inkscape:connector-curvature="0" /><path
           d="m 216.125,167.654 c -10.563,2.418 -20.585,5.203 -30.022,8.274 -3.125,8.476 -5.953,17.635 -8.538,27.404 9.875,-2.717 20.38,-5.199 31.487,-7.346 2.131,-10.125 4.469,-19.588 7.073,-28.332"
           style="fill:#ffffff;fill-opacity:1;fill-rule:nonzero;stroke:none"
           id="path4367"
           inkscape:connector-curvature="0" /><path
           d="m 250.462,161.227 c -11.893,1.748 -23.366,3.88 -34.337,6.427 -2.604,8.744 -4.942,18.207 -7.073,28.332 11.591,-2.271 23.728,-4.181 36.339,-5.734 1.502,-10.391 3.194,-20.074 5.071,-29.025"
           style="fill:#231f20;fill-opacity:1;fill-rule:nonzero;stroke:none"
           id="path4369"
           inkscape:connector-curvature="0" /><path
           d="m 288.038,157.152 c -12.813,0.899 -25.366,2.28 -37.576,4.075 -1.877,8.951 -3.569,18.634 -5.071,29.025 12.986,-1.606 26.352,-2.82 40.009,-3.648 0.749,-10.553 1.629,-20.374 2.638,-29.452"
           style="fill:#ffffff;fill-opacity:1;fill-rule:nonzero;stroke:none"
           id="path4371"
           inkscape:connector-curvature="0" /><path
           d="m 327.345,155.779 c -13.19,0 -26.325,0.434 -39.307,1.373 -1.009,9.078 -1.889,18.899 -2.638,29.452 13.863,-0.815 27.888,-1.235 41.981,-1.235 0,-10.599 -0.036,-20.465 -0.036,-29.59"
           style="fill:#231f20;fill-opacity:1;fill-rule:nonzero;stroke:none"
           id="path4373"
           inkscape:connector-curvature="0" /><path
           d="m 366.627,157.229 c -12.969,-0.948 -26.097,-1.416 -39.282,-1.45 0,9.125 0.036,18.991 0.036,29.59 14.09,0.033 28.107,0.428 41.954,1.301 -0.874,-10.539 -1.698,-20.363 -2.708,-29.441"
           style="fill:#ffffff;fill-opacity:1;fill-rule:nonzero;stroke:none"
           id="path4375"
           inkscape:connector-curvature="0" /><path
           d="m 404.137,161.369 c -12.183,-1.822 -24.713,-3.213 -37.51,-4.14 1.01,9.078 1.834,18.902 2.708,29.441 13.638,0.832 26.977,2.074 39.931,3.711 -1.563,-10.381 -3.317,-20.047 -5.129,-29.012"
           style="fill:#231f20;fill-opacity:1;fill-rule:nonzero;stroke:none"
           id="path4377"
           inkscape:connector-curvature="0" /><path
           d="m 438.371,167.852 c -10.939,-2.538 -22.373,-4.729 -34.234,-6.483 1.812,8.965 3.566,18.631 5.129,29.012 12.572,1.594 24.67,3.517 36.222,5.783 -2.195,-10.107 -4.523,-19.566 -7.117,-28.312"
           style="fill:#ffffff;fill-opacity:1;fill-rule:nonzero;stroke:none"
           id="path4379"
           inkscape:connector-curvature="0" /><path
           d="m 468.269,176.166 c -9.396,-3.076 -19.378,-5.859 -29.898,-8.314 2.594,8.746 4.922,18.205 7.117,28.312 11.06,2.18 21.52,4.656 31.349,7.381 -2.583,-9.762 -5.445,-18.904 -8.568,-27.379"
           style="fill:#231f20;fill-opacity:1;fill-rule:nonzero;stroke:none"
           id="path4381"
           inkscape:connector-curvature="0" /><path
           d="m 493.264,185.746 c -7.717,-3.426 -16.064,-6.623 -24.995,-9.58 3.123,8.475 5.985,17.617 8.568,27.379 9.282,2.601 17.932,5.402 25.889,8.445 -2.837,-9.334 -6.087,-18.066 -9.462,-26.244"
           style="fill:#ffffff;fill-opacity:1;fill-rule:nonzero;stroke:none"
           id="path4383"
           inkscape:connector-curvature="0" /><path
           d="m 513.251,196.043 c -6.034,-3.621 -12.721,-7.037 -19.987,-10.297 3.375,8.178 6.625,16.91 9.462,26.244 7.443,2.846 14.238,5.871 20.388,9.012 -2.978,-8.84 -6.243,-17.195 -9.863,-24.959"
           style="fill:#231f20;fill-opacity:1;fill-rule:nonzero;stroke:none"
           id="path4385"
           inkscape:connector-curvature="0" /><path
           d="m 528.488,206.576 c -4.474,-3.642 -9.579,-7.146 -15.237,-10.533 3.62,7.764 6.885,16.119 9.863,24.959 5.685,2.936 10.781,5.98 15.231,9.15 -2.972,-8.318 -6.239,-16.211 -9.857,-23.576"
           style="fill:#ffffff;fill-opacity:1;fill-rule:nonzero;stroke:none"
           id="path4387"
           inkscape:connector-curvature="0" /><path
           d="m 539.458,216.977 c -3.121,-3.524 -6.764,-7.03 -10.97,-10.401 3.618,7.365 6.885,15.258 9.857,23.576 4.124,2.893 7.679,5.909 10.669,8.965 -2.873,-7.783 -6.076,-15.179 -9.556,-22.14"
           style="fill:#231f20;fill-opacity:1;fill-rule:nonzero;stroke:none"
           id="path4389"
           inkscape:connector-curvature="0" /><path
           d="m 115.637,229.91 c -4.13,2.94 -7.754,5.916 -10.779,8.973 -3.008,8.012 -5.648,16.414 -7.878,25.143 2.907,-2.434 6.416,-4.786 10.479,-7.034 2.296,-9.435 5.099,-18.467 8.178,-27.082"
           style="fill:#231f20;fill-opacity:1;fill-rule:nonzero;stroke:none"
           id="path4391"
           inkscape:connector-curvature="0" /><path
           d="m 130.999,220.758 c -5.721,2.955 -10.86,5.994 -15.362,9.152 -3.079,8.615 -5.882,17.647 -8.178,27.082 4.47,-2.504 9.589,-4.887 15.308,-7.217 2.41,-10.117 5.141,-19.81 8.232,-29.017"
           style="fill:#ffffff;fill-opacity:1;fill-rule:nonzero;stroke:none"
           id="path4393"
           inkscape:connector-curvature="0" /><path
           d="m 151.528,211.758 c -7.491,2.84 -14.345,5.842 -20.529,9 -3.091,9.207 -5.822,18.9 -8.232,29.017 6.262,-2.498 13.203,-4.884 20.817,-7.144 2.288,-10.803 4.913,-21.125 7.944,-30.873"
           style="fill:#231f20;fill-opacity:1;fill-rule:nonzero;stroke:none"
           id="path4395"
           inkscape:connector-curvature="0" /><path
           d="m 177.565,203.332 c -9.33,2.6 -18.028,5.389 -26.037,8.426 -3.031,9.748 -5.656,20.07 -7.944,30.873 8.221,-2.406 17.149,-4.639 26.757,-6.729 2.088,-11.423 4.515,-22.295 7.224,-32.57"
           style="fill:#ffffff;fill-opacity:1;fill-rule:nonzero;stroke:none"
           id="path4397"
           inkscape:connector-curvature="0" /><path
           d="m 209.052,195.986 c -11.107,2.147 -21.612,4.629 -31.487,7.346 -2.709,10.275 -5.136,21.147 -7.224,32.57 10.23,-2.193 21.139,-4.17 32.691,-5.896 1.703,-11.959 3.764,-23.307 6.02,-34.02"
           style="fill:#231f20;fill-opacity:1;fill-rule:nonzero;stroke:none"
           id="path4399"
           inkscape:connector-curvature="0" /><path
           d="m 245.391,190.252 c -12.611,1.553 -24.748,3.463 -36.339,5.734 -2.256,10.713 -4.317,22.061 -6.02,34.02 12.114,-1.822 24.81,-3.358 38.024,-4.627 1.26,-12.359 2.672,-24.088 4.335,-35.127"
           style="fill:#ffffff;fill-opacity:1;fill-rule:nonzero;stroke:none"
           id="path4401"
           inkscape:connector-curvature="0" /><path
           d="m 285.4,186.604 c -13.657,0.828 -27.023,2.042 -40.009,3.648 -1.663,11.039 -3.075,22.768 -4.335,35.127 13.649,-1.279 27.703,-2.283 42.083,-2.953 0.631,-12.617 1.396,-24.571 2.261,-35.822"
           style="fill:#231f20;fill-opacity:1;fill-rule:nonzero;stroke:none"
           id="path4403"
           inkscape:connector-curvature="0" /><path
           d="m 327.381,185.369 c -14.093,0 -28.118,0.42 -41.981,1.235 -0.865,11.251 -1.63,23.205 -2.261,35.822 14.615,-0.655 29.405,-1.033 44.272,-1.002 0,-12.701 -0.03,-24.729 -0.03,-36.055"
           style="fill:#ffffff;fill-opacity:1;fill-rule:nonzero;stroke:none"
           id="path4405"
           inkscape:connector-curvature="0" /><path
           d="m 369.335,186.67 c -13.847,-0.873 -27.864,-1.268 -41.954,-1.301 0,11.326 0.03,23.354 0.03,36.055 14.864,0 29.648,0.338 44.245,1.055 -0.632,-12.614 -1.456,-24.557 -2.321,-35.809"
           style="fill:#231f20;fill-opacity:1;fill-rule:nonzero;stroke:none"
           id="path4407"
           inkscape:connector-curvature="0" /><path
           d="m 409.266,190.381 c -12.954,-1.637 -26.293,-2.879 -39.931,-3.711 0.865,11.252 1.689,23.195 2.321,35.809 14.356,0.669 28.385,1.66 41.995,3.003 -1.258,-12.351 -2.789,-24.058 -4.385,-35.101"
           style="fill:#ffffff;fill-opacity:1;fill-rule:nonzero;stroke:none"
           id="path4409"
           inkscape:connector-curvature="0" /><path
           d="m 445.488,196.164 c -11.552,-2.266 -23.65,-4.189 -36.222,-5.783 1.596,11.043 3.127,22.75 4.385,35.101 13.176,1.266 25.83,2.819 37.896,4.664 -1.769,-11.939 -3.803,-23.279 -6.059,-33.982"
           style="fill:#231f20;fill-opacity:1;fill-rule:nonzero;stroke:none"
           id="path4411"
           inkscape:connector-curvature="0" /><path
           d="m 476.837,203.545 c -9.829,-2.725 -20.289,-5.201 -31.349,-7.381 2.256,10.703 4.29,22.043 6.059,33.982 11.505,1.729 22.369,3.7 32.54,5.924 -2.087,-11.406 -4.545,-22.261 -7.25,-32.525"
           style="fill:#ffffff;fill-opacity:1;fill-rule:nonzero;stroke:none"
           id="path4413"
           inkscape:connector-curvature="0" /><path
           d="m 502.726,211.99 c -7.957,-3.043 -16.607,-5.844 -25.889,-8.445 2.705,10.264 5.163,21.119 7.25,32.525 9.56,2.065 18.438,4.307 26.597,6.746 -2.286,-10.787 -4.929,-21.087 -7.958,-30.826"
           style="fill:#231f20;fill-opacity:1;fill-rule:nonzero;stroke:none"
           id="path4415"
           inkscape:connector-curvature="0" /><path
           d="m 523.114,221.002 c -6.15,-3.141 -12.945,-6.166 -20.388,-9.012 3.029,9.739 5.672,20.039 7.958,30.826 7.569,2.233 14.462,4.623 20.665,7.151 -2.353,-10.112 -5.14,-19.778 -8.235,-28.965"
           style="fill:#ffffff;fill-opacity:1;fill-rule:nonzero;stroke:none"
           id="path4417"
           inkscape:connector-curvature="0" /><path
           d="m 538.345,230.152 c -4.45,-3.17 -9.546,-6.214 -15.231,-9.15 3.095,9.187 5.882,18.853 8.235,28.965 5.675,2.314 10.75,4.701 15.168,7.217 -2.357,-9.403 -5.089,-18.434 -8.172,-27.032"
           style="fill:#231f20;fill-opacity:1;fill-rule:nonzero;stroke:none"
           id="path4419"
           inkscape:connector-curvature="0" /><path
           d="m 549.014,239.117 c -2.99,-3.056 -6.545,-6.072 -10.669,-8.965 3.083,8.598 5.815,17.629 8.172,27.032 4.005,2.279 7.463,4.63 10.363,7.023 -2.294,-8.693 -4.866,-17.094 -7.866,-25.09"
           style="fill:#ffffff;fill-opacity:1;fill-rule:nonzero;stroke:none"
           id="path4421"
           inkscape:connector-curvature="0" /><path
           d="m 107.459,256.992 c -4.051,2.272 -7.545,4.633 -10.48,7.034 -2.288,8.924 -4.201,18.133 -5.736,27.568 2.864,-1.604 6.274,-3.158 10.23,-4.649 1.6,-10.273 3.57,-20.286 5.986,-29.953"
           style="fill:#ffffff;fill-opacity:1;fill-rule:nonzero;stroke:none"
           id="path4423"
           inkscape:connector-curvature="0" /><path
           d="m 122.767,249.775 c -5.719,2.33 -10.838,4.713 -15.308,7.217 -2.416,9.667 -4.386,19.68 -5.986,29.953 4.449,-1.676 9.53,-3.258 15.234,-4.792 1.595,-11.132 3.64,-21.944 6.06,-32.378"
           style="fill:#231f20;fill-opacity:1;fill-rule:nonzero;stroke:none"
           id="path4425"
           inkscape:connector-curvature="0" /><path
           d="m 143.584,242.631 c -7.614,2.26 -14.555,4.646 -20.817,7.144 -2.42,10.434 -4.465,21.246 -6.06,32.378 6.311,-1.663 13.301,-3.288 20.997,-4.766 1.529,-11.975 3.521,-23.582 5.88,-34.756"
           style="fill:#ffffff;fill-opacity:1;fill-rule:nonzero;stroke:none"
           id="path4427"
           inkscape:connector-curvature="0" /><path
           d="m 170.341,235.902 c -9.608,2.09 -18.536,4.323 -26.757,6.729 -2.359,11.174 -4.351,22.781 -5.88,34.756 8.357,-1.651 17.454,-3.111 27.261,-4.508 1.404,-12.762 3.212,-25.109 5.376,-36.977"
           style="fill:#231f20;fill-opacity:1;fill-rule:nonzero;stroke:none"
           id="path4429"
           inkscape:connector-curvature="0" /><path
           d="m 203.032,230.006 c -11.552,1.726 -22.461,3.703 -32.691,5.896 -2.164,11.868 -3.972,24.215 -5.376,36.977 10.493,-1.471 21.692,-2.805 33.568,-3.967 1.144,-13.451 2.657,-26.443 4.499,-38.906"
           style="fill:#ffffff;fill-opacity:1;fill-rule:nonzero;stroke:none"
           id="path4431"
           inkscape:connector-curvature="0" /><path
           d="m 241.056,225.379 c -13.214,1.269 -25.91,2.805 -38.024,4.627 -1.842,12.463 -3.355,25.455 -4.499,38.906 12.497,-1.256 25.61,-2.269 39.271,-3.123 0.826,-13.984 1.935,-27.475 3.252,-40.41"
           style="fill:#231f20;fill-opacity:1;fill-rule:nonzero;stroke:none"
           id="path4433"
           inkscape:connector-curvature="0" /><path
           d="m 283.139,222.426 c -14.38,0.67 -28.434,1.674 -42.083,2.953 -1.317,12.935 -2.426,26.426 -3.252,40.41 14.142,-0.885 28.715,-1.551 43.634,-2 0.445,-14.322 0.975,-28.133 1.701,-41.363"
           style="fill:#ffffff;fill-opacity:1;fill-rule:nonzero;stroke:none"
           id="path4435"
           inkscape:connector-curvature="0" /><path
           d="m 327.411,221.424 c -14.867,-0.031 -29.657,0.347 -44.272,1.002 -0.726,13.23 -1.256,27.041 -1.701,41.363 15.182,-0.453 30.545,-0.678 45.998,-0.678 0,-14.437 -0.025,-28.351 -0.025,-41.687"
           style="fill:#231f20;fill-opacity:1;fill-rule:nonzero;stroke:none"
           id="path4437"
           inkscape:connector-curvature="0" /><path
           d="m 371.656,222.479 c -14.597,-0.717 -29.381,-1.055 -44.245,-1.055 0,13.336 0.025,27.25 0.025,41.687 15.447,0 30.8,0.227 45.963,0.715 -0.443,-14.316 -1.017,-28.121 -1.743,-41.347"
           style="fill:#ffffff;fill-opacity:1;fill-rule:nonzero;stroke:none"
           id="path4439"
           inkscape:connector-curvature="0" /><path
           d="m 413.651,225.482 c -13.61,-1.343 -27.639,-2.334 -41.995,-3.003 0.726,13.226 1.3,27.031 1.743,41.347 14.896,0.447 29.436,1.147 43.541,2.031 -0.888,-13.968 -1.967,-27.449 -3.289,-40.375"
           style="fill:#231f20;fill-opacity:1;fill-rule:nonzero;stroke:none"
           id="path4441"
           inkscape:connector-curvature="0" /><path
           d="m 451.547,230.146 c -12.066,-1.845 -24.72,-3.398 -37.896,-4.664 1.322,12.926 2.401,26.407 3.289,40.375 13.622,0.856 26.683,1.925 39.135,3.151 -1.145,-13.436 -2.683,-26.412 -4.528,-38.862"
           style="fill:#ffffff;fill-opacity:1;fill-rule:nonzero;stroke:none"
           id="path4443"
           inkscape:connector-curvature="0" /><path
           d="m 484.087,236.07 c -10.171,-2.224 -21.035,-4.195 -32.54,-5.924 1.845,12.45 3.383,25.426 4.528,38.862 11.821,1.187 22.965,2.522 33.405,3.986 -1.465,-12.738 -3.221,-25.076 -5.393,-36.924"
           style="fill:#231f20;fill-opacity:1;fill-rule:nonzero;stroke:none"
           id="path4445"
           inkscape:connector-curvature="0" /><path
           d="m 510.684,242.816 c -8.159,-2.439 -17.037,-4.681 -26.597,-6.746 2.172,11.848 3.928,24.186 5.393,36.924 9.749,1.404 18.787,2.897 27.092,4.518 -1.53,-11.955 -3.527,-23.541 -5.888,-34.696"
           style="fill:#ffffff;fill-opacity:1;fill-rule:nonzero;stroke:none"
           id="path4447"
           inkscape:connector-curvature="0" /><path
           d="m 531.349,249.967 c -6.203,-2.528 -13.096,-4.918 -20.665,-7.151 2.361,11.155 4.358,22.741 5.888,34.696 7.642,1.478 14.581,3.088 20.835,4.769 -1.594,-11.11 -3.575,-21.916 -6.058,-32.314"
           style="fill:#231f20;fill-opacity:1;fill-rule:nonzero;stroke:none"
           id="path4449"
           inkscape:connector-curvature="0" /><path
           d="m 546.517,257.184 c -4.418,-2.516 -9.493,-4.903 -15.168,-7.217 2.483,10.398 4.464,21.204 6.058,32.314 5.654,1.535 10.694,3.105 15.093,4.789 -1.534,-10.259 -3.563,-20.242 -5.983,-29.886"
           style="fill:#ffffff;fill-opacity:1;fill-rule:nonzero;stroke:none"
           id="path4451"
           inkscape:connector-curvature="0" /><path
           d="m 556.88,264.207 c -2.9,-2.393 -6.358,-4.744 -10.363,-7.023 2.42,9.644 4.449,19.627 5.983,29.886 3.917,1.478 7.276,3.055 10.108,4.643 -1.538,-9.411 -3.445,-18.6 -5.728,-27.506"
           style="fill:#231f20;fill-opacity:1;fill-rule:nonzero;stroke:none"
           id="path4453"
           inkscape:connector-curvature="0" /><path
           d="m 101.473,286.945 c -3.956,1.491 -7.382,3.016 -10.23,4.649 -1.493,9.581 -2.59,19.341 -3.233,29.218 2.838,-0.673 6.186,-1.337 10.076,-1.946 0.708,-10.802 1.823,-21.466 3.387,-31.921"
           style="fill:#231f20;fill-opacity:1;fill-rule:nonzero;stroke:none"
           id="path4455"
           inkscape:connector-curvature="0" /><path
           d="m 116.707,282.153 c -5.704,1.534 -10.777,3.138 -15.234,4.792 -1.564,10.455 -2.679,21.119 -3.387,31.921 4.448,-0.684 9.497,-1.368 15.181,-2.011 0.642,-11.759 1.815,-23.355 3.44,-34.702"
           style="fill:#ffffff;fill-opacity:1;fill-rule:nonzero;stroke:none"
           id="path4457"
           inkscape:connector-curvature="0" /><path
           d="m 137.704,277.387 c -7.696,1.478 -14.686,3.103 -20.997,4.766 -1.625,11.347 -2.798,22.943 -3.44,34.702 6.334,-0.714 13.358,-1.361 21.087,-2.005 0.642,-12.708 1.72,-25.232 3.35,-37.463"
           style="fill:#231f20;fill-opacity:1;fill-rule:nonzero;stroke:none"
           id="path4459"
           inkscape:connector-curvature="0" /><path
           d="m 164.965,272.879 c -9.807,1.397 -18.904,2.857 -27.261,4.508 -1.63,12.231 -2.708,24.755 -3.35,37.463 8.444,-0.674 17.621,-1.339 27.538,-1.901 0.64,-13.603 1.639,-26.992 3.073,-40.07"
           style="fill:#ffffff;fill-opacity:1;fill-rule:nonzero;stroke:none"
           id="path4461"
           inkscape:connector-curvature="0" /><path
           d="m 198.533,268.912 c -11.876,1.162 -23.075,2.496 -33.568,3.967 -1.434,13.078 -2.433,26.467 -3.073,40.07 10.64,-0.631 22.003,-1.175 34.061,-1.678 0.513,-14.396 1.336,-28.548 2.58,-42.359"
           style="fill:#231f20;fill-opacity:1;fill-rule:nonzero;stroke:none"
           id="path4463"
           inkscape:connector-curvature="0" /><path
           d="m 237.804,265.789 c -13.661,0.854 -26.774,1.867 -39.271,3.123 -1.244,13.811 -2.067,27.963 -2.58,42.359 12.719,-0.529 26.064,-0.974 39.981,-1.323 0.384,-15.016 0.954,-29.768 1.87,-44.159"
           style="fill:#ffffff;fill-opacity:1;fill-rule:nonzero;stroke:none"
           id="path4465"
           inkscape:connector-curvature="0" /><path
           d="m 281.438,263.789 c -14.919,0.449 -29.492,1.115 -43.634,2 -0.916,14.391 -1.486,29.143 -1.87,44.159 14.427,-0.36 29.295,-0.655 44.526,-0.846 0.191,-15.416 0.521,-30.549 0.978,-45.313"
           style="fill:#231f20;fill-opacity:1;fill-rule:nonzero;stroke:none"
           id="path4467"
           inkscape:connector-curvature="0" /><path
           d="m 327.436,263.111 c -15.453,0 -30.816,0.225 -45.998,0.678 -0.457,14.764 -0.787,29.897 -0.978,45.313 15.507,-0.196 31.201,-0.289 46.988,-0.289 0,-15.551 -0.012,-30.813 -0.012,-45.702"
           style="fill:#ffffff;fill-opacity:1;fill-rule:nonzero;stroke:none"
           id="path4469"
           inkscape:connector-curvature="0" /><path
           d="m 373.399,263.826 c -15.163,-0.488 -30.516,-0.715 -45.963,-0.715 0,14.889 0.012,30.151 0.012,45.702 15.782,0 31.468,0.107 46.954,0.303 -0.191,-15.409 -0.546,-30.534 -1.003,-45.29"
           style="fill:#231f20;fill-opacity:1;fill-rule:nonzero;stroke:none"
           id="path4471"
           inkscape:connector-curvature="0" /><path
           d="m 416.94,265.857 c -14.105,-0.884 -28.645,-1.584 -43.541,-2.031 0.457,14.756 0.812,29.881 1.003,45.29 15.206,0.193 30.042,0.468 44.43,0.863 -0.32,-15.006 -0.976,-29.743 -1.892,-44.122"
           style="fill:#ffffff;fill-opacity:1;fill-rule:nonzero;stroke:none"
           id="path4473"
           inkscape:connector-curvature="0" /><path
           d="m 456.075,269.008 c -12.452,-1.226 -25.513,-2.295 -39.135,-3.151 0.916,14.379 1.572,29.116 1.892,44.122 13.873,0.346 27.171,0.805 39.839,1.334 -0.513,-14.377 -1.357,-28.51 -2.596,-42.305"
           style="fill:#231f20;fill-opacity:1;fill-rule:nonzero;stroke:none"
           id="path4475"
           inkscape:connector-curvature="0" /><path
           d="m 489.48,272.994 c -10.44,-1.464 -21.584,-2.799 -33.405,-3.986 1.239,13.795 2.083,27.928 2.596,42.305 12.004,0.501 23.309,1.052 33.893,1.684 -0.64,-13.582 -1.65,-26.946 -3.084,-40.003"
           style="fill:#ffffff;fill-opacity:1;fill-rule:nonzero;stroke:none"
           id="path4477"
           inkscape:connector-curvature="0" /><path
           d="m 516.572,277.512 c -8.305,-1.621 -17.343,-3.114 -27.092,-4.518 1.434,13.057 2.444,26.421 3.084,40.003 9.856,0.593 18.98,1.196 27.364,1.905 -0.642,-12.683 -1.729,-25.182 -3.356,-37.39"
           style="fill:#231f20;fill-opacity:1;fill-rule:nonzero;stroke:none"
           id="path4479"
           inkscape:connector-curvature="0" /><path
           d="m 537.407,282.281 c -6.254,-1.681 -13.193,-3.291 -20.835,-4.769 1.627,12.208 2.714,24.707 3.356,37.39 7.674,0.619 14.64,1.29 20.921,2.007 -0.708,-11.731 -1.877,-23.297 -3.442,-34.628"
           style="fill:#ffffff;fill-opacity:1;fill-rule:nonzero;stroke:none"
           id="path4481"
           inkscape:connector-curvature="0" /><path
           d="m 552.5,287.07 c -4.399,-1.684 -9.439,-3.254 -15.093,-4.789 1.565,11.331 2.734,22.897 3.442,34.628 5.633,0.644 10.633,1.322 15.034,2.009 -0.708,-10.775 -1.76,-21.425 -3.383,-31.848"
           style="fill:#231f20;fill-opacity:1;fill-rule:nonzero;stroke:none"
           id="path4483"
           inkscape:connector-curvature="0" /><path
           d="m 562.608,291.713 c -2.832,-1.588 -6.191,-3.165 -10.108,-4.643 1.623,10.423 2.675,21.073 3.383,31.848 3.842,0.631 7.15,1.277 9.952,1.943 -0.644,-9.851 -1.735,-19.589 -3.227,-29.148"
           style="fill:#ffffff;fill-opacity:1;fill-rule:nonzero;stroke:none"
           id="path4485"
           inkscape:connector-curvature="0" /><path
           d="m 98.086,318.866 c -3.887,0.628 -7.238,1.273 -10.076,1.946 -0.646,9.936 -0.772,19.934 -0.514,29.921 2.837,0.283 6.173,0.627 10.052,0.895 -0.323,-10.934 -0.108,-21.881 0.538,-32.762"
           style="fill:#ffffff;fill-opacity:1;fill-rule:nonzero;stroke:none"
           id="path4487"
           inkscape:connector-curvature="0" /><path
           d="m 113.267,316.855 c -5.684,0.643 -10.735,1.317 -15.181,2.011 -0.646,10.881 -0.861,21.828 -0.538,32.762 4.441,0.348 9.49,0.622 15.169,0.928 -0.322,-11.918 -0.163,-23.85 0.55,-35.701"
           style="fill:#231f20;fill-opacity:1;fill-rule:nonzero;stroke:none"
           id="path4489"
           inkscape:connector-curvature="0" /><path
           d="m 134.354,314.85 c -7.729,0.644 -14.753,1.291 -21.087,2.005 -0.713,11.851 -0.872,23.783 -0.55,35.701 6.342,0.306 13.366,0.645 21.101,0.924 -0.323,-12.898 -0.112,-25.806 0.536,-38.63"
           style="fill:#ffffff;fill-opacity:1;fill-rule:nonzero;stroke:none"
           id="path4491"
           inkscape:connector-curvature="0" /><path
           d="m 161.892,312.949 c -9.917,0.562 -19.094,1.227 -27.538,1.901 -0.648,12.824 -0.859,25.732 -0.536,38.63 8.457,0.336 17.65,0.627 27.582,0.877 -0.259,-13.829 -0.091,-27.663 0.492,-41.408"
           style="fill:#231f20;fill-opacity:1;fill-rule:nonzero;stroke:none"
           id="path4493"
           inkscape:connector-curvature="0" /><path
           d="m 195.953,311.271 c -12.058,0.503 -23.421,1.047 -34.061,1.678 -0.583,13.745 -0.751,27.579 -0.492,41.408 10.665,0.3 22.052,0.555 34.139,0.774 -0.259,-14.65 -0.105,-29.304 0.414,-43.86"
           style="fill:#ffffff;fill-opacity:1;fill-rule:nonzero;stroke:none"
           id="path4495"
           inkscape:connector-curvature="0" /><path
           d="m 235.934,309.948 c -13.917,0.349 -27.262,0.794 -39.981,1.323 -0.519,14.556 -0.673,29.21 -0.414,43.86 12.755,0.266 26.138,0.452 40.095,0.611 -0.194,-15.298 -0.088,-30.596 0.3,-45.794"
           style="fill:#231f20;fill-opacity:1;fill-rule:nonzero;stroke:none"
           id="path4497"
           inkscape:connector-curvature="0" /><path
           d="m 280.46,309.102 c -15.231,0.191 -30.099,0.486 -44.526,0.846 -0.388,15.198 -0.494,30.496 -0.3,45.794 14.472,0.196 29.387,0.328 44.669,0.392 -0.13,-15.715 -0.038,-31.425 0.157,-47.032"
           style="fill:#ffffff;fill-opacity:1;fill-rule:nonzero;stroke:none"
           id="path4499"
           inkscape:connector-curvature="0" /><path
           d="m 327.448,308.813 c -15.787,0 -31.481,0.093 -46.988,0.289 -0.195,15.607 -0.287,31.317 -0.157,47.032 15.559,0.097 31.307,0.132 47.148,0.132 0,-15.855 -0.003,-31.705 -0.003,-47.453"
           style="fill:#231f20;fill-opacity:1;fill-rule:nonzero;stroke:none"
           id="path4501"
           inkscape:connector-curvature="0" /><path
           d="m 374.402,309.116 c -15.486,-0.196 -31.172,-0.303 -46.954,-0.303 0,15.748 0.003,31.598 0.003,47.453 15.836,0 31.572,-0.041 47.113,-0.14 0.127,-15.706 0.033,-31.409 -0.162,-47.01"
           style="fill:#ffffff;fill-opacity:1;fill-rule:nonzero;stroke:none"
           id="path4503"
           inkscape:connector-curvature="0" /><path
           d="m 418.832,309.979 c -14.388,-0.395 -29.224,-0.67 -44.43,-0.863 0.195,15.601 0.289,31.304 0.162,47.01 15.254,-0.063 30.137,-0.233 44.57,-0.397 0.193,-15.284 0.086,-30.569 -0.302,-45.75"
           style="fill:#231f20;fill-opacity:1;fill-rule:nonzero;stroke:none"
           id="path4505"
           inkscape:connector-curvature="0" /><path
           d="m 458.671,311.313 c -12.668,-0.529 -25.966,-0.988 -39.839,-1.334 0.388,15.181 0.495,30.466 0.302,45.75 13.915,-0.159 27.25,-0.352 39.952,-0.617 0.26,-14.63 0.103,-29.263 -0.415,-43.799"
           style="fill:#ffffff;fill-opacity:1;fill-rule:nonzero;stroke:none"
           id="path4507"
           inkscape:connector-curvature="0" /><path
           d="m 492.564,312.997 c -10.584,-0.632 -21.889,-1.183 -33.893,-1.684 0.518,14.536 0.675,29.169 0.415,43.799 12.034,-0.219 23.363,-0.477 33.972,-0.777 0.257,-13.806 0.089,-27.616 -0.494,-41.338"
           style="fill:#231f20;fill-opacity:1;fill-rule:nonzero;stroke:none"
           id="path4509"
           inkscape:connector-curvature="0" /><path
           d="m 519.928,314.902 c -8.384,-0.709 -17.508,-1.312 -27.364,-1.905 0.583,13.722 0.751,27.532 0.494,41.338 9.872,-0.279 19.007,-0.541 27.407,-0.879 0.321,-12.873 0.11,-25.755 -0.537,-38.554"
           style="fill:#ffffff;fill-opacity:1;fill-rule:nonzero;stroke:none"
           id="path4511"
           inkscape:connector-curvature="0" /><path
           d="m 540.849,316.909 c -6.281,-0.717 -13.247,-1.388 -20.921,-2.007 0.647,12.799 0.858,25.681 0.537,38.554 7.677,-0.277 14.647,-0.618 20.932,-0.925 0.323,-11.891 0.097,-23.795 -0.548,-35.622"
           style="fill:#231f20;fill-opacity:1;fill-rule:nonzero;stroke:none"
           id="path4513"
           inkscape:connector-curvature="0" /><path
           d="m 555.883,318.918 c -4.401,-0.687 -9.401,-1.365 -15.034,-2.009 0.645,11.827 0.871,23.731 0.548,35.622 5.628,-0.306 10.627,-0.617 15.026,-0.927 0.321,-10.909 0.105,-21.831 -0.54,-32.686"
           style="fill:#ffffff;fill-opacity:1;fill-rule:nonzero;stroke:none"
           id="path4515"
           inkscape:connector-curvature="0" /><path
           d="m 565.835,320.861 c -2.802,-0.666 -6.11,-1.312 -9.952,-1.943 0.645,10.855 0.861,21.777 0.54,32.686 3.831,-0.299 7.131,-0.58 9.927,-0.894 0.257,-9.962 0.132,-19.937 -0.515,-29.849"
           style="fill:#231f20;fill-opacity:1;fill-rule:nonzero;stroke:none"
           id="path4517"
           inkscape:connector-curvature="0" /><path
           d="m 97.548,351.628 c -3.878,-0.272 -7.215,-0.612 -10.052,-0.895 0.259,9.959 1.009,19.851 2.24,29.597 2.833,1.309 6.239,2.478 10.159,3.672 -1.231,-10.657 -2.025,-21.473 -2.347,-32.374"
           style="fill:#231f20;fill-opacity:1;fill-rule:nonzero;stroke:none"
           id="path4519"
           inkscape:connector-curvature="0" /><path
           d="m 112.717,352.556 c -5.679,-0.306 -10.725,-0.615 -15.169,-0.928 0.322,10.901 1.116,21.717 2.347,32.374 4.455,1.302 9.511,2.597 15.21,3.792 -1.237,-11.593 -2.065,-23.364 -2.388,-35.238"
           style="fill:#ffffff;fill-opacity:1;fill-rule:nonzero;stroke:none"
           id="path4521"
           inkscape:connector-curvature="0" /><path
           d="m 133.818,353.48 c -7.735,-0.279 -14.759,-0.618 -21.101,-0.924 0.323,11.874 1.151,23.645 2.388,35.238 6.314,1.358 13.328,2.603 21.04,3.776 -1.235,-12.518 -2.006,-25.245 -2.327,-38.09"
           style="fill:#231f20;fill-opacity:1;fill-rule:nonzero;stroke:none"
           id="path4523"
           inkscape:connector-curvature="0" /><path
           d="m 161.4,354.357 c -9.932,-0.25 -19.125,-0.541 -27.582,-0.877 0.321,12.845 1.092,25.572 2.327,38.09 8.397,1.309 17.533,2.484 27.391,3.576 -1.105,-13.399 -1.814,-27.024 -2.136,-40.789"
           style="fill:#ffffff;fill-opacity:1;fill-rule:nonzero;stroke:none"
           id="path4525"
           inkscape:connector-curvature="0" /><path
           d="m 195.539,355.131 c -12.087,-0.219 -23.474,-0.474 -34.139,-0.774 0.322,13.765 1.031,27.39 2.136,40.789 10.562,1.169 21.838,2.211 33.798,3.15 -0.977,-14.167 -1.602,-28.588 -1.795,-43.165"
           style="fill:#231f20;fill-opacity:1;fill-rule:nonzero;stroke:none"
           id="path4527"
           inkscape:connector-curvature="0" /><path
           d="m 235.634,355.742 c -13.957,-0.159 -27.34,-0.345 -40.095,-0.611 0.193,14.577 0.818,28.998 1.795,43.165 12.603,0.962 25.82,1.818 39.602,2.482 -0.718,-14.776 -1.109,-29.821 -1.302,-45.036"
           style="fill:#ffffff;fill-opacity:1;fill-rule:nonzero;stroke:none"
           id="path4529"
           inkscape:connector-curvature="0" /><path
           d="m 280.303,356.134 c -15.282,-0.064 -30.197,-0.196 -44.669,-0.392 0.193,15.215 0.584,30.26 1.302,45.036 14.274,0.687 28.983,1.239 44.048,1.59 -0.391,-15.166 -0.617,-30.609 -0.681,-46.234"
           style="fill:#231f20;fill-opacity:1;fill-rule:nonzero;stroke:none"
           id="path4531"
           inkscape:connector-curvature="0" /><path
           d="m 327.451,356.266 c -15.841,0 -31.589,-0.035 -47.148,-0.132 0.064,15.625 0.29,31.068 0.681,46.234 15.333,0.358 30.85,0.54 46.456,0.54 0,-15.3 0.011,-30.877 0.011,-46.642"
           style="fill:#ffffff;fill-opacity:1;fill-rule:nonzero;stroke:none"
           id="path4533"
           inkscape:connector-curvature="0" /><path
           d="m 374.564,356.126 c -15.541,0.099 -31.277,0.14 -47.113,0.14 0,15.765 -0.011,31.342 -0.011,46.642 15.604,0 31.11,-0.21 46.425,-0.569 0.392,-15.16 0.635,-30.595 0.699,-46.213"
           style="fill:#231f20;fill-opacity:1;fill-rule:nonzero;stroke:none"
           id="path4535"
           inkscape:connector-curvature="0" /><path
           d="m 419.134,355.729 c -14.433,0.164 -29.316,0.334 -44.57,0.397 -0.064,15.618 -0.307,31.053 -0.699,46.213 15.037,-0.382 29.717,-0.927 43.953,-1.616 0.719,-14.764 1.123,-29.793 1.316,-44.994"
           style="fill:#ffffff;fill-opacity:1;fill-rule:nonzero;stroke:none"
           id="path4537"
           inkscape:connector-curvature="0" /><path
           d="m 459.086,355.112 c -12.702,0.265 -26.037,0.458 -39.952,0.617 -0.193,15.201 -0.597,30.23 -1.316,44.994 13.74,-0.697 26.911,-1.545 39.464,-2.503 0.975,-14.149 1.548,-28.551 1.804,-43.108"
           style="fill:#231f20;fill-opacity:1;fill-rule:nonzero;stroke:none"
           id="path4539"
           inkscape:connector-curvature="0" /><path
           d="m 493.058,354.335 c -10.609,0.3 -21.938,0.558 -33.972,0.777 -0.256,14.557 -0.829,28.959 -1.804,43.108 11.906,-0.94 23.123,-2.001 33.632,-3.166 1.107,-13.375 1.886,-26.976 2.144,-40.719"
           style="fill:#ffffff;fill-opacity:1;fill-rule:nonzero;stroke:none"
           id="path4541"
           inkscape:connector-curvature="0" /><path
           d="m 520.465,353.456 c -8.4,0.338 -17.535,0.6 -27.407,0.879 -0.258,13.743 -1.037,27.344 -2.144,40.719 9.801,-1.092 18.877,-2.271 27.218,-3.583 1.236,-12.494 2.073,-25.194 2.333,-38.015"
           style="fill:#231f20;fill-opacity:1;fill-rule:nonzero;stroke:none"
           id="path4543"
           inkscape:connector-curvature="0" /><path
           d="m 541.397,352.531 c -6.285,0.307 -13.255,0.648 -20.932,0.925 -0.26,12.821 -1.097,25.521 -2.333,38.015 7.658,-1.174 14.607,-2.463 20.879,-3.778 1.234,-11.568 2.13,-23.312 2.386,-35.162"
           style="fill:#ffffff;fill-opacity:1;fill-rule:nonzero;stroke:none"
           id="path4545"
           inkscape:connector-curvature="0" /><path
           d="m 556.423,351.604 c -4.399,0.31 -9.398,0.621 -15.026,0.927 -0.256,11.85 -1.152,23.594 -2.386,35.162 5.64,-1.227 10.67,-2.45 15.064,-3.79 1.232,-10.633 2.024,-21.423 2.348,-32.299"
           style="fill:#231f20;fill-opacity:1;fill-rule:nonzero;stroke:none"
           id="path4547"
           inkscape:connector-curvature="0" /><path
           d="m 566.35,350.71 c -2.796,0.314 -6.096,0.595 -9.927,0.894 -0.324,10.876 -1.116,21.666 -2.348,32.299 3.881,-1.182 7.237,-2.374 10.036,-3.669 1.235,-9.721 1.915,-19.592 2.239,-29.524"
           style="fill:#ffffff;fill-opacity:1;fill-rule:nonzero;stroke:none"
           id="path4549"
           inkscape:connector-curvature="0" /><path
           d="m 99.895,384.002 c -3.934,-1.149 -7.315,-2.39 -10.159,-3.672 1.221,9.634 2.822,19.085 4.844,28.28 2.899,2.125 6.38,4.166 10.377,6.195 -2.078,-10.005 -3.847,-20.284 -5.062,-30.803"
           style="fill:#ffffff;fill-opacity:1;fill-rule:nonzero;stroke:none"
           id="path4551"
           inkscape:connector-curvature="0" /><path
           d="m 115.105,387.794 c -5.699,-1.195 -10.766,-2.458 -15.21,-3.792 1.215,10.519 2.984,20.798 5.062,30.803 4.482,2.173 9.566,4.32 15.28,6.369 -2.15,-10.813 -3.853,-21.966 -5.132,-33.38"
           style="fill:#231f20;fill-opacity:1;fill-rule:nonzero;stroke:none"
           id="path4553"
           inkscape:connector-curvature="0" /><path
           d="m 136.145,391.57 c -7.712,-1.173 -14.726,-2.418 -21.04,-3.776 1.279,11.414 2.982,22.567 5.132,33.38 6.298,2.167 13.242,4.342 20.896,6.317 -2.1,-11.615 -3.773,-23.616 -4.988,-35.921"
           style="fill:#ffffff;fill-opacity:1;fill-rule:nonzero;stroke:none"
           id="path4555"
           inkscape:connector-curvature="0" /><path
           d="m 163.536,395.146 c -9.858,-1.092 -18.994,-2.267 -27.391,-3.576 1.215,12.305 2.888,24.306 4.988,35.921 8.276,2.153 17.269,4.156 26.97,5.96 -1.898,-12.371 -3.416,-25.166 -4.567,-38.305"
           style="fill:#231f20;fill-opacity:1;fill-rule:nonzero;stroke:none"
           id="path4557"
           inkscape:connector-curvature="0" /><path
           d="m 197.334,398.296 c -11.96,-0.939 -23.236,-1.981 -33.798,-3.15 1.151,13.139 2.669,25.934 4.567,38.305 10.342,1.935 21.376,3.663 33.058,5.233 -1.644,-13.021 -2.934,-26.512 -3.827,-40.388"
           style="fill:#ffffff;fill-opacity:1;fill-rule:nonzero;stroke:none"
           id="path4559"
           inkscape:connector-curvature="0" /><path
           d="m 236.936,400.778 c -13.782,-0.664 -26.999,-1.52 -39.602,-2.482 0.893,13.876 2.183,27.367 3.827,40.388 12.271,1.649 25.145,2.967 38.543,4.111 -1.118,-13.544 -2.067,-27.572 -2.768,-42.017"
           style="fill:#231f20;fill-opacity:1;fill-rule:nonzero;stroke:none"
           id="path4561"
           inkscape:connector-curvature="0" /><path
           d="m 280.984,402.368 c -15.065,-0.351 -29.774,-0.903 -44.048,-1.59 0.701,14.445 1.65,28.473 2.768,42.017 13.852,1.176 28.124,2.054 42.729,2.627 -0.658,-13.865 -1.131,-28.241 -1.449,-43.054"
           style="fill:#ffffff;fill-opacity:1;fill-rule:nonzero;stroke:none"
           id="path4563"
           inkscape:connector-curvature="0" /><path
           d="m 327.44,402.908 c -15.606,0 -31.123,-0.182 -46.456,-0.54 0.318,14.813 0.791,29.189 1.449,43.054 14.85,0.587 29.878,0.89 44.989,0.89 0,-13.977 0.018,-28.47 0.018,-43.404"
           style="fill:#231f20;fill-opacity:1;fill-rule:nonzero;stroke:none"
           id="path4565"
           inkscape:connector-curvature="0" /><path
           d="m 373.865,402.339 c -15.315,0.359 -30.821,0.569 -46.425,0.569 0,14.934 -0.018,29.427 -0.018,43.404 15.105,0 30.123,-0.353 44.958,-0.937 0.59,-13.863 1.166,-28.23 1.485,-43.036"
           style="fill:#ffffff;fill-opacity:1;fill-rule:nonzero;stroke:none"
           id="path4567"
           inkscape:connector-curvature="0" /><path
           d="m 417.818,400.723 c -14.236,0.689 -28.916,1.234 -43.953,1.616 -0.319,14.806 -0.895,29.173 -1.485,43.036 14.581,-0.577 28.821,-1.493 42.637,-2.671 1.183,-13.528 2.1,-27.548 2.801,-41.981"
           style="fill:#231f20;fill-opacity:1;fill-rule:nonzero;stroke:none"
           id="path4569"
           inkscape:connector-curvature="0" /><path
           d="m 457.282,398.22 c -12.553,0.958 -25.724,1.806 -39.464,2.503 -0.701,14.433 -1.618,28.453 -2.801,41.981 13.362,-1.14 26.189,-2.494 38.415,-4.146 1.576,-13.015 2.892,-26.483 3.85,-40.338"
           style="fill:#ffffff;fill-opacity:1;fill-rule:nonzero;stroke:none"
           id="path4571"
           inkscape:connector-curvature="0" /><path
           d="m 490.914,395.054 c -10.509,1.165 -21.726,2.226 -33.632,3.166 -0.958,13.855 -2.274,27.323 -3.85,40.338 11.631,-1.572 22.624,-3.255 32.9,-5.257 1.97,-12.343 3.433,-25.127 4.582,-38.247"
           style="fill:#231f20;fill-opacity:1;fill-rule:nonzero;stroke:none"
           id="path4573"
           inkscape:connector-curvature="0" /><path
           d="m 518.132,391.471 c -8.341,1.312 -17.417,2.491 -27.218,3.583 -1.149,13.12 -2.612,25.904 -4.582,38.247 9.647,-1.805 18.58,-3.834 26.806,-5.974 2.095,-11.596 3.783,-23.572 4.994,-35.856"
           style="fill:#ffffff;fill-opacity:1;fill-rule:nonzero;stroke:none"
           id="path4575"
           inkscape:connector-curvature="0" /><path
           d="m 539.011,387.693 c -6.272,1.315 -13.221,2.604 -20.879,3.778 -1.211,12.284 -2.899,24.26 -4.994,35.856 7.596,-1.993 14.515,-4.09 20.74,-6.322 2.158,-10.789 3.853,-21.922 5.133,-33.312"
           style="fill:#231f20;fill-opacity:1;fill-rule:nonzero;stroke:none"
           id="path4577"
           inkscape:connector-curvature="0" /><path
           d="m 554.075,383.903 c -4.394,1.34 -9.424,2.563 -15.064,3.79 -1.28,11.39 -2.975,22.523 -5.133,33.312 5.671,-2.035 10.736,-4.131 15.14,-6.367 2.087,-9.981 3.841,-20.239 5.057,-30.735"
           style="fill:#ffffff;fill-opacity:1;fill-rule:nonzero;stroke:none"
           id="path4579"
           inkscape:connector-curvature="0" /><path
           d="m 564.111,380.234 c -2.799,1.295 -6.155,2.487 -10.036,3.669 -1.216,10.496 -2.97,20.754 -5.057,30.735 3.975,-1.989 7.433,-4.016 10.259,-6.188 2.079,-9.162 3.682,-18.596 4.834,-28.216"
           style="fill:#231f20;fill-opacity:1;fill-rule:nonzero;stroke:none"
           id="path4581"
           inkscape:connector-curvature="0" /><path
           d="m 104.957,414.805 c -4.034,-1.956 -7.502,-4.037 -10.377,-6.195 1.982,9.02 4.402,17.735 7.131,26.119 3.011,2.81 6.575,5.583 10.666,8.311 -2.817,-9.042 -5.387,-18.453 -7.42,-28.235"
           style="fill:#231f20;fill-opacity:1;fill-rule:nonzero;stroke:none"
           id="path4583"
           inkscape:connector-curvature="0" /><path
           d="m 120.237,421.174 c -5.714,-2.049 -10.839,-4.115 -15.28,-6.369 2.033,9.782 4.603,19.193 7.42,28.235 4.485,2.944 9.622,5.758 15.346,8.496 -2.879,-9.683 -5.379,-19.827 -7.486,-30.362"
           style="fill:#ffffff;fill-opacity:1;fill-rule:nonzero;stroke:none"
           id="path4585"
           inkscape:connector-curvature="0" /><path
           d="m 141.133,427.491 c -7.654,-1.975 -14.598,-4.15 -20.896,-6.317 2.107,10.535 4.607,20.679 7.486,30.362 6.215,2.941 13.099,5.758 20.65,8.379 -2.761,-10.321 -5.212,-21.144 -7.24,-32.424"
           style="fill:#231f20;fill-opacity:1;fill-rule:nonzero;stroke:none"
           id="path4587"
           inkscape:connector-curvature="0" /><path
           d="m 168.103,433.451 c -9.701,-1.804 -18.694,-3.807 -26.97,-5.96 2.028,11.28 4.479,22.103 7.24,32.424 8.079,2.871 16.888,5.423 26.328,7.861 -2.496,-10.905 -4.761,-22.356 -6.598,-34.325"
           style="fill:#ffffff;fill-opacity:1;fill-rule:nonzero;stroke:none"
           id="path4589"
           inkscape:connector-curvature="0" /><path
           d="m 201.161,438.684 c -11.682,-1.57 -22.716,-3.298 -33.058,-5.233 1.837,11.969 4.102,23.42 6.598,34.325 10.023,2.522 20.686,4.851 31.967,6.868 -2.119,-11.395 -3.985,-23.397 -5.507,-35.96"
           style="fill:#231f20;fill-opacity:1;fill-rule:nonzero;stroke:none"
           id="path4591"
           inkscape:connector-curvature="0" /><path
           d="m 239.704,442.795 c -13.398,-1.144 -26.272,-2.462 -38.543,-4.111 1.522,12.563 3.388,24.565 5.507,35.96 11.802,2.11 24.166,3.854 37.009,5.372 -1.523,-11.782 -2.836,-24.206 -3.973,-37.221"
           style="fill:#ffffff;fill-opacity:1;fill-rule:nonzero;stroke:none"
           id="path4593"
           inkscape:connector-curvature="0" /><path
           d="m 282.433,445.422 c -14.605,-0.573 -28.877,-1.451 -42.729,-2.627 1.137,13.015 2.45,25.439 3.973,37.221 13.248,1.508 26.886,2.656 40.829,3.423 -0.797,-12.023 -1.506,-24.71 -2.073,-38.017"
           style="fill:#231f20;fill-opacity:1;fill-rule:nonzero;stroke:none"
           id="path4595"
           inkscape:connector-curvature="0" /><path
           d="m 327.422,446.312 c -15.111,0 -30.139,-0.303 -44.989,-0.89 0.567,13.307 1.276,25.994 2.073,38.017 14.16,0.78 28.488,1.158 42.887,1.158 0,-12.106 0.029,-24.882 0.029,-38.285"
           style="fill:#ffffff;fill-opacity:1;fill-rule:nonzero;stroke:none"
           id="path4597"
           inkscape:connector-curvature="0" /><path
           d="m 372.38,445.375 c -14.835,0.584 -29.853,0.937 -44.958,0.937 0,13.403 -0.029,26.179 -0.029,38.285 14.396,-0.063 28.712,-0.441 42.858,-1.22 0.794,-12.022 1.498,-24.704 2.129,-38.002"
           style="fill:#231f20;fill-opacity:1;fill-rule:nonzero;stroke:none"
           id="path4599"
           inkscape:connector-curvature="0" /><path
           d="m 415.017,442.704 c -13.816,1.178 -28.056,2.094 -42.637,2.671 -0.631,13.298 -1.335,25.98 -2.129,38.002 13.92,-0.833 27.537,-1.911 40.749,-3.48 1.595,-11.766 2.884,-24.188 4.017,-37.193"
           style="fill:#ffffff;fill-opacity:1;fill-rule:nonzero;stroke:none"
           id="path4601"
           inkscape:connector-curvature="0" /><path
           d="m 453.432,438.558 c -12.226,1.652 -25.053,3.006 -38.415,4.146 -1.133,13.005 -2.422,25.427 -4.017,37.193 12.814,-1.459 25.129,-3.304 36.889,-5.418 2.117,-11.386 3.959,-23.379 5.543,-35.921"
           style="fill:#231f20;fill-opacity:1;fill-rule:nonzero;stroke:none"
           id="path4603"
           inkscape:connector-curvature="0" /><path
           d="m 486.332,433.301 c -10.276,2.002 -21.269,3.685 -32.9,5.257 -1.584,12.542 -3.426,24.535 -5.543,35.921 11.236,-2.021 21.863,-4.312 31.821,-6.9 2.571,-10.876 4.788,-22.325 6.622,-34.278"
           style="fill:#ffffff;fill-opacity:1;fill-rule:nonzero;stroke:none"
           id="path4605"
           inkscape:connector-curvature="0" /><path
           d="m 513.138,427.327 c -8.226,2.14 -17.159,4.169 -26.806,5.974 -1.834,11.953 -4.051,23.402 -6.622,34.278 9.394,-2.442 18.149,-5.005 26.177,-7.881 2.773,-10.303 5.225,-21.109 7.251,-32.371"
           style="fill:#231f20;fill-opacity:1;fill-rule:nonzero;stroke:none"
           id="path4607"
           inkscape:connector-curvature="0" /><path
           d="m 533.878,421.005 c -6.225,2.232 -13.144,4.329 -20.74,6.322 -2.026,11.262 -4.478,22.068 -7.251,32.371 7.502,-2.626 14.34,-5.44 20.503,-8.387 2.892,-9.662 5.384,-19.791 7.488,-30.306"
           style="fill:#ffffff;fill-opacity:1;fill-rule:nonzero;stroke:none"
           id="path4609"
           inkscape:connector-curvature="0" /><path
           d="m 549.018,414.638 c -4.404,2.236 -9.469,4.332 -15.14,6.367 -2.104,10.515 -4.596,20.644 -7.488,30.306 5.688,-2.72 10.78,-5.539 15.214,-8.495 2.871,-9.007 5.311,-18.431 7.414,-28.178"
           style="fill:#231f20;fill-opacity:1;fill-rule:nonzero;stroke:none"
           id="path4611"
           inkscape:connector-curvature="0" /><path
           d="m 559.277,408.45 c -2.826,2.172 -6.284,4.199 -10.259,6.188 -2.103,9.747 -4.543,19.171 -7.414,28.178 4.061,-2.709 7.592,-5.479 10.551,-8.303 2.742,-8.36 5.144,-17.063 7.122,-26.063"
           style="fill:#ffffff;fill-opacity:1;fill-rule:nonzero;stroke:none"
           id="path4613"
           inkscape:connector-curvature="0" /><path
           d="m 112.377,443.04 c -4.11,-2.7 -7.686,-5.468 -10.666,-8.311 2.676,8.156 5.7,15.941 8.996,23.325 3.107,3.372 6.757,6.716 10.969,9.937 -3.432,-7.855 -6.548,-16.189 -9.299,-24.951"
           style="fill:#ffffff;fill-opacity:1;fill-rule:nonzero;stroke:none"
           id="path4615"
           inkscape:connector-curvature="0" /><path
           d="m 127.723,451.536 c -5.724,-2.738 -10.85,-5.568 -15.346,-8.496 2.751,8.762 5.867,17.096 9.299,24.951 4.528,3.462 9.648,6.852 15.367,10.085 -3.411,-8.334 -6.524,-17.199 -9.32,-26.54"
           style="fill:#231f20;fill-opacity:1;fill-rule:nonzero;stroke:none"
           id="path4617"
           inkscape:connector-curvature="0" /><path
           d="m 148.373,459.915 c -7.551,-2.621 -14.435,-5.438 -20.65,-8.379 2.796,9.341 5.909,18.206 9.32,26.54 6.11,3.49 12.883,6.799 20.288,9.874 -3.318,-8.757 -6.307,-18.125 -8.958,-28.035"
           style="fill:#ffffff;fill-opacity:1;fill-rule:nonzero;stroke:none"
           id="path4619"
           inkscape:connector-curvature="0" /><path
           d="m 174.701,467.776 c -9.44,-2.438 -18.249,-4.99 -26.328,-7.861 2.651,9.91 5.64,19.278 8.958,28.035 7.847,3.326 16.367,6.372 25.485,9.201 -2.986,-9.159 -5.656,-18.976 -8.115,-29.375"
           style="fill:#231f20;fill-opacity:1;fill-rule:nonzero;stroke:none"
           id="path4621"
           inkscape:connector-curvature="0" /><path
           d="m 206.668,474.644 c -11.281,-2.017 -21.944,-4.346 -31.967,-6.868 2.459,10.399 5.129,20.216 8.115,29.375 9.601,2.979 19.816,5.656 30.591,7.988 -2.457,-9.494 -4.724,-19.668 -6.739,-30.495"
           style="fill:#ffffff;fill-opacity:1;fill-rule:nonzero;stroke:none"
           id="path4623"
           inkscape:connector-curvature="0" /><path
           d="m 243.677,480.016 c -12.843,-1.518 -25.207,-3.262 -37.009,-5.372 2.015,10.827 4.282,21.001 6.739,30.495 11.218,2.428 22.945,4.498 35.11,6.216 -1.737,-9.746 -3.392,-20.195 -4.84,-31.339"
           style="fill:#231f20;fill-opacity:1;fill-rule:nonzero;stroke:none"
           id="path4625"
           inkscape:connector-curvature="0" /><path
           d="m 284.506,483.439 c -13.943,-0.767 -27.581,-1.915 -40.829,-3.423 1.448,11.144 3.103,21.593 4.84,31.339 12.514,1.695 25.374,3.051 38.509,3.948 -0.935,-9.895 -1.767,-20.522 -2.52,-31.864"
           style="fill:#ffffff;fill-opacity:1;fill-rule:nonzero;stroke:none"
           id="path4627"
           inkscape:connector-curvature="0" /><path
           d="m 327.393,484.597 c -14.399,0 -28.727,-0.378 -42.887,-1.158 0.753,11.342 1.585,21.969 2.52,31.864 13.32,0.91 26.796,1.332 40.332,1.332 0,-9.947 0.035,-20.631 0.035,-32.038"
           style="fill:#231f20;fill-opacity:1;fill-rule:nonzero;stroke:none"
           id="path4629"
           inkscape:connector-curvature="0" /><path
           d="m 370.251,483.377 c -14.146,0.779 -28.462,1.157 -42.858,1.22 0,11.407 -0.035,22.091 -0.035,32.038 13.534,-0.064 27.001,-0.495 40.308,-1.404 0.937,-9.894 1.772,-20.52 2.585,-31.854"
           style="fill:#ffffff;fill-opacity:1;fill-rule:nonzero;stroke:none"
           id="path4631"
           inkscape:connector-curvature="0" /><path
           d="m 411,479.897 c -13.212,1.569 -26.829,2.647 -40.749,3.48 -0.813,11.334 -1.648,21.96 -2.585,31.854 13.118,-0.896 25.958,-2.248 38.438,-4.013 1.814,-9.732 3.457,-20.18 4.896,-31.321"
           style="fill:#231f20;fill-opacity:1;fill-rule:nonzero;stroke:none"
           id="path4633"
           inkscape:connector-curvature="0" /><path
           d="m 447.889,474.479 c -11.76,2.114 -24.075,3.959 -36.889,5.418 -1.439,11.141 -3.082,21.589 -4.896,31.321 12.136,-1.716 23.822,-3.837 35.002,-6.27 2.457,-9.491 4.768,-19.649 6.783,-30.469"
           style="fill:#ffffff;fill-opacity:1;fill-rule:nonzero;stroke:none"
           id="path4635"
           inkscape:connector-curvature="0" /><path
           d="m 479.71,467.579 c -9.958,2.588 -20.585,4.879 -31.821,6.9 -2.015,10.82 -4.326,20.978 -6.783,30.469 10.72,-2.41 20.903,-5.041 30.46,-8.028 2.985,-9.152 5.748,-18.939 8.144,-29.341"
           style="fill:#231f20;fill-opacity:1;fill-rule:nonzero;stroke:none"
           id="path4637"
           inkscape:connector-curvature="0" /><path
           d="m 505.887,459.698 c -8.028,2.876 -16.783,5.439 -26.177,7.881 -2.396,10.402 -5.159,20.189 -8.144,29.341 9.08,-2.817 17.538,-5.916 25.348,-9.225 3.256,-8.772 6.325,-18.099 8.973,-27.997"
           style="fill:#ffffff;fill-opacity:1;fill-rule:nonzero;stroke:none"
           id="path4639"
           inkscape:connector-curvature="0" /><path
           d="m 526.39,451.311 c -6.163,2.947 -13.001,5.761 -20.503,8.387 -2.648,9.898 -5.717,19.225 -8.973,27.997 7.335,-3.135 14.073,-6.413 20.15,-9.886 3.433,-8.314 6.55,-17.166 9.326,-26.498"
           style="fill:#231f20;fill-opacity:1;fill-rule:nonzero;stroke:none"
           id="path4641"
           inkscape:connector-curvature="0" /><path
           d="m 541.604,442.816 c -4.434,2.956 -9.526,5.775 -15.214,8.495 -2.776,9.332 -5.893,18.184 -9.326,26.498 5.674,-3.241 10.766,-6.61 15.245,-10.085 3.428,-7.843 6.566,-16.155 9.295,-24.908"
           style="fill:#ffffff;fill-opacity:1;fill-rule:nonzero;stroke:none"
           id="path4643"
           inkscape:connector-curvature="0" /><path
           d="m 552.155,434.513 c -2.959,2.824 -6.49,5.594 -10.551,8.303 -2.729,8.753 -5.867,17.065 -9.295,24.908 4.164,-3.232 7.773,-6.573 10.862,-9.928 3.29,-7.372 6.293,-15.148 8.984,-23.283"
           style="fill:#231f20;fill-opacity:1;fill-rule:nonzero;stroke:none"
           id="path4645"
           inkscape:connector-curvature="0" /><path
           d="m 121.676,467.991 c -4.188,-3.252 -7.865,-6.562 -10.969,-9.937 3.19,7.147 6.673,13.873 10.376,20.155 3.221,3.746 6.96,7.46 11.238,11.047 -3.817,-6.581 -7.364,-13.693 -10.645,-21.265"
           style="fill:#231f20;fill-opacity:1;fill-rule:nonzero;stroke:none"
           id="path4647"
           inkscape:connector-curvature="0" /><path
           d="m 137.043,478.076 c -5.719,-3.233 -10.839,-6.623 -15.367,-10.085 3.281,7.572 6.828,14.684 10.645,21.265 4.515,3.85 9.654,7.538 15.31,11.121 -3.771,-6.88 -7.353,-14.312 -10.588,-22.301"
           style="fill:#ffffff;fill-opacity:1;fill-rule:nonzero;stroke:none"
           id="path4649"
           inkscape:connector-curvature="0" /><path
           d="m 157.331,487.95 c -7.405,-3.075 -14.178,-6.384 -20.288,-9.874 3.235,7.989 6.817,15.421 10.588,22.301 6.017,3.769 12.617,7.399 19.797,10.799 -3.572,-7.144 -7.019,-14.87 -10.097,-23.226"
           style="fill:#231f20;fill-opacity:1;fill-rule:nonzero;stroke:none"
           id="path4651"
           inkscape:connector-curvature="0" /><path
           d="m 182.816,497.151 c -9.118,-2.829 -17.638,-5.875 -25.485,-9.201 3.078,8.356 6.525,16.082 10.097,23.226 7.584,3.562 15.756,6.892 24.472,9.987 -3.21,-7.358 -6.264,-15.365 -9.084,-24.012"
           style="fill:#ffffff;fill-opacity:1;fill-rule:nonzero;stroke:none"
           id="path4653"
           inkscape:connector-curvature="0" /><path
           d="m 213.407,505.139 c -10.775,-2.332 -20.99,-5.009 -30.591,-7.988 2.82,8.647 5.874,16.654 9.084,24.012 9.14,3.179 18.819,6.079 29.003,8.609 -2.662,-7.522 -5.178,-15.736 -7.496,-24.633"
           style="fill:#231f20;fill-opacity:1;fill-rule:nonzero;stroke:none"
           id="path4655"
           inkscape:connector-curvature="0" /><path
           d="m 248.517,511.355 c -12.165,-1.718 -23.892,-3.788 -35.11,-6.216 2.318,8.897 4.834,17.111 7.496,24.633 10.553,2.622 21.563,4.877 32.972,6.663 -1.959,-7.634 -3.682,-16.011 -5.358,-25.08"
           style="fill:#ffffff;fill-opacity:1;fill-rule:nonzero;stroke:none"
           id="path4657"
           inkscape:connector-curvature="0" /><path
           d="m 287.026,515.303 c -13.135,-0.897 -25.995,-2.253 -38.509,-3.948 1.676,9.069 3.399,17.446 5.358,25.08 11.68,1.892 23.689,3.315 35.933,4.212 -1.016,-7.719 -1.913,-16.169 -2.782,-25.344"
           style="fill:#231f20;fill-opacity:1;fill-rule:nonzero;stroke:none"
           id="path4659"
           inkscape:connector-curvature="0" /><path
           d="m 327.358,516.635 c -13.536,0 -27.012,-0.422 -40.332,-1.332 0.869,9.175 1.766,17.625 2.782,25.344 12.393,0.973 24.929,1.419 37.513,1.419 0,-7.748 0.037,-16.221 0.037,-25.431"
           style="fill:#ffffff;fill-opacity:1;fill-rule:nonzero;stroke:none"
           id="path4661"
           inkscape:connector-curvature="0" /><path
           d="m 367.666,515.231 c -13.307,0.909 -26.774,1.34 -40.308,1.404 0,9.21 -0.037,17.683 -0.037,25.431 12.581,0 25.107,-0.523 37.49,-1.496 1.007,-7.722 1.988,-16.164 2.855,-25.339"
           style="fill:#231f20;fill-opacity:1;fill-rule:nonzero;stroke:none"
           id="path4663"
           inkscape:connector-curvature="0" /><path
           d="m 406.104,511.218 c -12.48,1.765 -25.32,3.117 -38.438,4.013 -0.867,9.175 -1.848,17.617 -2.855,25.339 12.221,-1.024 24.213,-2.383 35.872,-4.283 1.959,-7.635 3.745,-16 5.421,-25.069"
           style="fill:#ffffff;fill-opacity:1;fill-rule:nonzero;stroke:none"
           id="path4665"
           inkscape:connector-curvature="0" /><path
           d="m 441.106,504.948 c -11.18,2.433 -22.866,4.554 -35.002,6.27 -1.676,9.069 -3.462,17.434 -5.421,25.069 11.376,-1.842 22.354,-4.105 32.877,-6.721 2.685,-7.515 5.17,-15.738 7.546,-24.618"
           style="fill:#231f20;fill-opacity:1;fill-rule:nonzero;stroke:none"
           id="path4667"
           inkscape:connector-curvature="0" /><path
           d="m 471.566,496.92 c -9.557,2.987 -19.74,5.618 -30.46,8.028 -2.376,8.88 -4.861,17.103 -7.546,24.618 10.151,-2.537 19.801,-5.426 28.889,-8.653 3.211,-7.358 6.3,-15.349 9.117,-23.993"
           style="fill:#ffffff;fill-opacity:1;fill-rule:nonzero;stroke:none"
           id="path4669"
           inkscape:connector-curvature="0" /><path
           d="m 496.914,487.695 c -7.81,3.309 -16.268,6.408 -25.348,9.225 -2.817,8.644 -5.906,16.635 -9.117,23.993 8.676,-3.103 16.807,-6.443 24.348,-10.015 3.572,-7.142 6.985,-14.873 10.117,-23.203"
           style="fill:#231f20;fill-opacity:1;fill-rule:nonzero;stroke:none"
           id="path4671"
           inkscape:connector-curvature="0" /><path
           d="m 517.064,477.809 c -6.077,3.473 -12.815,6.751 -20.15,9.886 -3.132,8.33 -6.545,16.061 -10.117,23.203 7.126,-3.437 13.703,-7.032 19.675,-10.814 3.768,-6.876 7.308,-14.315 10.592,-22.275"
           style="fill:#ffffff;fill-opacity:1;fill-rule:nonzero;stroke:none"
           id="path4673"
           inkscape:connector-curvature="0" /><path
           d="m 532.309,467.724 c -4.479,3.475 -9.571,6.844 -15.245,10.085 -3.284,7.96 -6.824,15.399 -10.592,22.275 5.63,-3.566 10.698,-7.296 15.196,-11.124 3.813,-6.574 7.363,-13.673 10.641,-21.236"
           style="fill:#231f20;fill-opacity:1;fill-rule:nonzero;stroke:none"
           id="path4675"
           inkscape:connector-curvature="0" /><path
           d="m 543.171,457.796 c -3.089,3.355 -6.698,6.696 -10.862,9.928 -3.278,7.563 -6.828,14.662 -10.641,21.236 4.226,-3.604 7.937,-7.307 11.136,-11.04 3.718,-6.263 7.128,-13.012 10.367,-20.124"
           style="fill:#ffffff;fill-opacity:1;fill-rule:nonzero;stroke:none"
           id="path4677"
           inkscape:connector-curvature="0" /><path
           d="m 132.321,489.256 c -4.248,-3.623 -8.023,-7.297 -11.238,-11.047 3.541,6.068 7.316,11.695 11.277,16.845 3.309,3.97 7.132,7.873 11.431,11.674 -4.005,-5.319 -7.815,-11.17 -11.47,-17.472"
           style="fill:#ffffff;fill-opacity:1;fill-rule:nonzero;stroke:none"
           id="path4679"
           inkscape:connector-curvature="0" /><path
           d="m 147.631,500.377 c -5.656,-3.583 -10.735,-7.342 -15.31,-11.121 3.655,6.302 7.465,12.153 11.47,17.472 4.534,4.001 9.562,7.943 15.152,11.648 -3.969,-5.424 -7.725,-11.456 -11.312,-17.999"
           style="fill:#231f20;fill-opacity:1;fill-rule:nonzero;stroke:none"
           id="path4681"
           inkscape:connector-curvature="0" /><path
           d="m 167.428,511.176 c -7.18,-3.4 -13.78,-7.03 -19.797,-10.799 3.587,6.543 7.343,12.575 11.312,17.999 5.859,3.929 12.259,7.69 19.184,11.216 -3.733,-5.532 -7.303,-11.686 -10.699,-18.416"
           style="fill:#ffffff;fill-opacity:1;fill-rule:nonzero;stroke:none"
           id="path4683"
           inkscape:connector-curvature="0" /><path
           d="m 191.9,521.163 c -8.716,-3.095 -16.888,-6.425 -24.472,-9.987 3.396,6.73 6.966,12.884 10.699,18.416 7.237,3.718 15.035,7.145 23.324,10.285 -3.332,-5.597 -6.496,-11.856 -9.551,-18.714"
           style="fill:#231f20;fill-opacity:1;fill-rule:nonzero;stroke:none"
           id="path4685"
           inkscape:connector-curvature="0" /><path
           d="m 220.903,529.772 c -10.184,-2.53 -19.863,-5.43 -29.003,-8.609 3.055,6.858 6.219,13.117 9.551,18.714 8.613,3.288 17.718,6.269 27.282,8.803 -2.775,-5.619 -5.344,-11.949 -7.83,-18.908"
           style="fill:#ffffff;fill-opacity:1;fill-rule:nonzero;stroke:none"
           id="path4687"
           inkscape:connector-curvature="0" /><path
           d="m 253.875,536.435 c -11.409,-1.786 -22.419,-4.041 -32.972,-6.663 2.486,6.959 5.055,13.289 7.83,18.908 9.845,2.691 20.115,4.92 30.711,6.771 -1.956,-5.664 -3.844,-11.996 -5.569,-19.016"
           style="fill:#231f20;fill-opacity:1;fill-rule:nonzero;stroke:none"
           id="path4689"
           inkscape:connector-curvature="0" /><path
           d="m 289.808,540.647 c -12.244,-0.897 -24.253,-2.32 -35.933,-4.212 1.725,7.02 3.613,13.352 5.569,19.016 10.838,1.818 21.937,3.299 33.246,4.263 -1.026,-5.68 -1.964,-12.034 -2.882,-19.067"
           style="fill:#ffffff;fill-opacity:1;fill-rule:nonzero;stroke:none"
           id="path4691"
           inkscape:connector-curvature="0" /><path
           d="m 327.321,542.066 c -12.584,0 -25.12,-0.446 -37.513,-1.419 0.918,7.033 1.856,13.387 2.882,19.067 11.434,0.969 22.993,1.433 34.591,1.433 0,-5.689 -0.023,-12.042 0.04,-19.081"
           style="fill:#231f20;fill-opacity:1;fill-rule:nonzero;stroke:none"
           id="path4693"
           inkscape:connector-curvature="0" /><path
           d="m 364.811,540.57 c -12.383,0.973 -24.909,1.496 -37.49,1.496 -0.063,7.039 -0.04,13.392 -0.04,19.081 11.598,0 23.149,-0.536 34.573,-1.51 1.028,-5.685 2.031,-12.032 2.957,-19.067"
           style="fill:#ffffff;fill-opacity:1;fill-rule:nonzero;stroke:none"
           id="path4695"
           inkscape:connector-curvature="0" /><path
           d="m 400.683,536.287 c -11.659,1.9 -23.651,3.259 -35.872,4.283 -0.926,7.035 -1.929,13.382 -2.957,19.067 11.298,-0.964 22.384,-2.447 33.194,-4.335 1.978,-5.664 3.85,-12.004 5.635,-19.015"
           style="fill:#231f20;fill-opacity:1;fill-rule:nonzero;stroke:none"
           id="path4697"
           inkscape:connector-curvature="0" /><path
           d="m 433.56,529.566 c -10.523,2.616 -21.501,4.879 -32.877,6.721 -1.785,7.011 -3.657,13.351 -5.635,19.015 10.576,-1.848 20.792,-4.207 30.63,-6.831 2.751,-5.639 5.342,-11.962 7.882,-18.905"
           style="fill:#ffffff;fill-opacity:1;fill-rule:nonzero;stroke:none"
           id="path4699"
           inkscape:connector-curvature="0" /><path
           d="m 462.449,520.913 c -9.088,3.227 -18.738,6.116 -28.889,8.653 -2.54,6.943 -5.131,13.266 -7.882,18.905 9.519,-2.602 18.603,-5.55 27.183,-8.85 3.363,-5.584 6.533,-11.849 9.588,-18.708"
           style="fill:#231f20;fill-opacity:1;fill-rule:nonzero;stroke:none"
           id="path4701"
           inkscape:connector-curvature="0" /><path
           d="m 486.797,510.898 c -7.541,3.572 -15.672,6.912 -24.348,10.015 -3.055,6.859 -6.225,13.124 -9.588,18.708 8.254,-3.15 16.03,-6.559 23.214,-10.316 3.779,-5.504 7.326,-11.678 10.722,-18.407"
           style="fill:#ffffff;fill-opacity:1;fill-rule:nonzero;stroke:none"
           id="path4703"
           inkscape:connector-curvature="0" /><path
           d="m 506.472,500.084 c -5.972,3.782 -12.549,7.377 -19.675,10.814 -3.396,6.729 -6.943,12.903 -10.722,18.407 6.9,-3.513 13.272,-7.276 19.074,-11.233 3.971,-5.425 7.738,-11.447 11.323,-17.988"
           style="fill:#231f20;fill-opacity:1;fill-rule:nonzero;stroke:none"
           id="path4705"
           inkscape:connector-curvature="0" /><path
           d="m 521.668,488.96 c -4.498,3.828 -9.566,7.558 -15.196,11.124 -3.585,6.541 -7.352,12.563 -11.323,17.988 5.549,-3.72 10.566,-7.633 15.05,-11.655 3.992,-5.323 7.836,-11.147 11.469,-17.457"
           style="fill:#ffffff;fill-opacity:1;fill-rule:nonzero;stroke:none"
           id="path4707"
           inkscape:connector-curvature="0" /><path
           d="m 532.804,477.92 c -3.199,3.733 -6.91,7.436 -11.136,11.04 -3.633,6.31 -7.477,12.134 -11.469,17.457 4.285,-3.781 8.043,-7.717 11.336,-11.67 3.96,-5.145 7.706,-10.782 11.269,-16.827"
           style="fill:#231f20;fill-opacity:1;fill-rule:nonzero;stroke:none"
           id="path4709"
           inkscape:connector-curvature="0" /><path
           d="m 158.943,518.376 c -5.59,-3.705 -10.651,-7.61 -15.153,-11.648 3.823,5.076 7.778,9.689 11.833,13.809 4.499,4.036 9.463,7.971 14.884,11.753 -3.968,-4.101 -7.844,-8.744 -11.564,-13.914"
           style="fill:#ffffff;fill-opacity:1;fill-rule:nonzero;stroke:none"
           id="path4711"
           inkscape:connector-curvature="0" /><path
           d="m 178.127,529.592 c -6.925,-3.526 -13.325,-7.287 -19.184,-11.216 3.72,5.17 7.596,9.813 11.564,13.914 5.662,3.95 11.84,7.682 18.464,11.214 -3.726,-4.059 -7.34,-8.717 -10.844,-13.912"
           style="fill:#231f20;fill-opacity:1;fill-rule:nonzero;stroke:none"
           id="path4713"
           inkscape:connector-curvature="0" /><path
           d="m 201.451,539.877 c -8.289,-3.14 -16.087,-6.567 -23.324,-10.285 3.504,5.195 7.118,9.853 10.844,13.912 6.92,3.624 14.27,7.086 22.085,10.199 -3.285,-4.022 -6.511,-8.628 -9.605,-13.826"
           style="fill:#ffffff;fill-opacity:1;fill-rule:nonzero;stroke:none"
           id="path4715"
           inkscape:connector-curvature="0" /><path
           d="m 228.733,548.68 c -9.564,-2.534 -18.669,-5.515 -27.282,-8.803 3.094,5.198 6.32,9.804 9.605,13.826 8.085,3.221 16.601,6.123 25.499,8.665 -2.685,-3.96 -5.351,-8.501 -7.822,-13.688"
           style="fill:#231f20;fill-opacity:1;fill-rule:nonzero;stroke:none"
           id="path4717"
           inkscape:connector-curvature="0" /><path
           d="m 259.444,555.451 c -10.596,-1.851 -20.866,-4.08 -30.711,-6.771 2.471,5.187 5.137,9.728 7.822,13.688 9.139,2.611 18.633,4.844 28.422,6.625 -1.974,-3.881 -3.748,-8.43 -5.533,-13.542"
           style="fill:#ffffff;fill-opacity:1;fill-rule:nonzero;stroke:none"
           id="path4719"
           inkscape:connector-curvature="0" /><path
           d="m 292.69,559.714 c -11.309,-0.964 -22.408,-2.445 -33.246,-4.263 1.785,5.112 3.559,9.661 5.533,13.542 9.971,1.825 20.181,3.256 30.568,4.153 -1.039,-3.876 -1.938,-8.359 -2.855,-13.432"
           style="fill:#231f20;fill-opacity:1;fill-rule:nonzero;stroke:none"
           id="path4721"
           inkscape:connector-curvature="0" /><path
           d="m 327.281,561.147 c -11.598,0 -23.157,-0.464 -34.591,-1.433 0.917,5.073 1.816,9.556 2.855,13.432 10.479,0.971 21.074,1.394 31.697,1.394 0,-3.883 0.039,-8.337 0.039,-13.393"
           style="fill:#ffffff;fill-opacity:1;fill-rule:nonzero;stroke:none"
           id="path4723"
           inkscape:connector-curvature="0" /><path
           d="m 361.854,559.637 c -11.424,0.974 -22.975,1.51 -34.573,1.51 0,5.056 -0.039,9.51 -0.039,13.393 10.623,0 21.21,-0.499 31.685,-1.469 1.039,-3.883 1.95,-8.367 2.927,-13.434"
           style="fill:#231f20;fill-opacity:1;fill-rule:nonzero;stroke:none"
           id="path4725"
           inkscape:connector-curvature="0" /><path
           d="m 395.048,555.302 c -10.81,1.888 -21.896,3.371 -33.194,4.335 -0.977,5.067 -1.888,9.551 -2.927,13.434 10.376,-0.902 20.576,-2.339 30.521,-4.223 1.925,-3.918 3.829,-8.42 5.6,-13.546"
           style="fill:#ffffff;fill-opacity:1;fill-rule:nonzero;stroke:none"
           id="path4727"
           inkscape:connector-curvature="0" /><path
           d="m 425.678,548.471 c -9.838,2.624 -20.054,4.983 -30.63,6.831 -1.771,5.126 -3.675,9.628 -5.6,13.546 9.772,-1.788 19.256,-4.002 28.355,-6.685 2.722,-3.949 5.325,-8.534 7.875,-13.692"
           style="fill:#231f20;fill-opacity:1;fill-rule:nonzero;stroke:none"
           id="path4729"
           inkscape:connector-curvature="0" /><path
           d="m 452.861,539.621 c -8.58,3.3 -17.664,6.248 -27.183,8.85 -2.55,5.158 -5.153,9.743 -7.875,13.692 8.872,-2.554 17.372,-5.444 25.413,-8.713 3.289,-4.029 6.547,-8.625 9.645,-13.829"
           style="fill:#ffffff;fill-opacity:1;fill-rule:nonzero;stroke:none"
           id="path4731"
           inkscape:connector-curvature="0" /><path
           d="m 476.075,529.305 c -7.184,3.757 -14.96,7.166 -23.214,10.316 -3.098,5.204 -6.356,9.8 -9.645,13.829 7.793,-3.104 15.134,-6.541 21.99,-10.232 3.731,-4.064 7.391,-8.696 10.869,-13.913"
           style="fill:#231f20;fill-opacity:1;fill-rule:nonzero;stroke:none"
           id="path4733"
           inkscape:connector-curvature="0" /><path
           d="m 495.149,518.072 c -5.802,3.957 -12.174,7.72 -19.074,11.233 -3.478,5.217 -7.138,9.849 -10.869,13.913 6.588,-3.548 12.726,-7.298 18.367,-11.235 3.971,-4.103 7.858,-8.741 11.576,-13.911"
           style="fill:#ffffff;fill-opacity:1;fill-rule:nonzero;stroke:none"
           id="path4735"
           inkscape:connector-curvature="0" /><path
           d="m 510.199,506.417 c -4.484,4.022 -9.501,7.935 -15.05,11.655 -3.718,5.17 -7.605,9.808 -11.576,13.911 5.382,-3.798 10.341,-7.703 14.792,-11.761 4.055,-4.12 8.014,-8.73 11.834,-13.805"
           style="fill:#231f20;fill-opacity:1;fill-rule:nonzero;stroke:none"
           id="path4737"
           inkscape:connector-curvature="0" /></g></g></g></svg>